G75*
%MOIN*%
%OFA0B0*%
%FSLAX24Y24*%
%IPPOS*%
%LPD*%
%AMOC8*
5,1,8,0,0,1.08239X$1,22.5*
%
%ADD10C,0.0160*%
%ADD11C,0.0050*%
%ADD12C,0.0040*%
D10*
X002050Y000180D02*
X002050Y025180D01*
X027050Y025180D01*
X027050Y000180D01*
X002050Y000180D01*
D11*
X018435Y007780D02*
X018510Y007705D01*
X018660Y007705D01*
X018735Y007780D01*
X018896Y007780D02*
X018971Y007705D01*
X019121Y007705D01*
X019196Y007780D01*
X019196Y008080D01*
X019121Y008155D01*
X018971Y008155D01*
X018896Y008080D01*
X018735Y008080D02*
X018660Y008155D01*
X018510Y008155D01*
X018435Y008080D01*
X018435Y008005D01*
X018510Y007930D01*
X018435Y007855D01*
X018435Y007780D01*
X018510Y007930D02*
X018585Y007930D01*
D12*
X018584Y006660D02*
X018431Y006660D01*
X018354Y006584D01*
X018661Y006277D01*
X018584Y006200D01*
X018431Y006200D01*
X018354Y006277D01*
X018354Y006584D01*
X018201Y006507D02*
X017971Y006507D01*
X017894Y006430D01*
X017894Y006200D01*
X017740Y006200D02*
X017740Y006660D01*
X017433Y006660D01*
X017587Y006430D02*
X017740Y006430D01*
X018201Y006507D02*
X018201Y006200D01*
X018661Y006277D02*
X018661Y006584D01*
X018584Y006660D01*
X018815Y006584D02*
X019122Y006277D01*
X019045Y006200D01*
X018891Y006200D01*
X018815Y006277D01*
X018815Y006584D01*
X018891Y006660D01*
X019045Y006660D01*
X019122Y006584D01*
X019122Y006277D01*
X019275Y006200D02*
X019582Y006200D01*
X019429Y006200D02*
X019429Y006660D01*
X019582Y006507D01*
X025763Y014320D02*
X025763Y014627D01*
X025609Y014780D02*
X025533Y014780D01*
X025533Y014857D01*
X025609Y014857D01*
X025609Y014780D01*
X025609Y015011D02*
X025533Y015011D01*
X025609Y015011D02*
X025916Y015318D01*
X025993Y015318D01*
X025993Y015011D01*
X026204Y015050D02*
X026204Y014897D01*
X026281Y014820D01*
X026588Y014820D01*
X026664Y014897D01*
X026664Y015050D01*
X026588Y015127D01*
X026434Y015280D02*
X026434Y015587D01*
X026204Y015511D02*
X026664Y015511D01*
X026434Y015280D01*
X026281Y015127D02*
X026204Y015050D01*
X025993Y014550D02*
X025763Y014320D01*
X025533Y014550D02*
X025993Y014550D01*
X025840Y015471D02*
X025609Y015471D01*
X025533Y015548D01*
X025533Y015778D01*
X025840Y015778D01*
X025763Y015931D02*
X025763Y016085D01*
X025993Y015931D02*
X025993Y016238D01*
X025993Y015931D02*
X025533Y015931D01*
M02*
