G75*
%MOIN*%
%OFA0B0*%
%FSLAX24Y24*%
%IPPOS*%
%LPD*%
%AMOC8*
5,1,8,0,0,1.08239X$1,22.5*
%
%ADD10R,0.0671X0.0671*%
%ADD11R,0.0710X0.0867*%
%ADD12R,0.0592X0.0671*%
%ADD13R,0.0336X0.0749*%
%ADD14R,0.0674X0.0674*%
%ADD15R,0.1346X0.1346*%
%ADD16C,0.0580*%
%ADD17R,0.0966X0.0277*%
%ADD18R,0.1655X0.0887*%
%ADD19R,0.1458X0.0887*%
%ADD20C,0.0680*%
%ADD21C,0.0640*%
D10*
X003861Y002680D03*
X005239Y002680D03*
D11*
X013999Y001680D03*
X015101Y001680D03*
D12*
X022926Y002680D03*
X023674Y002680D03*
X023674Y003930D03*
X022926Y003930D03*
D13*
X022050Y005298D03*
X021550Y005298D03*
X021050Y005298D03*
X020550Y005298D03*
X020050Y005298D03*
X019550Y005298D03*
X019050Y005298D03*
X018550Y005298D03*
X018050Y005298D03*
X017550Y005298D03*
X017050Y005298D03*
X016550Y005298D03*
X016050Y005298D03*
X015550Y005298D03*
X015550Y009062D03*
X016050Y009062D03*
X016550Y009062D03*
X017050Y009062D03*
X017550Y009062D03*
X018050Y009062D03*
X018550Y009062D03*
X019050Y009062D03*
X019550Y009062D03*
X020050Y009062D03*
X020550Y009062D03*
X021050Y009062D03*
X021550Y009062D03*
X022050Y009062D03*
D14*
X015003Y011696D03*
X015003Y012680D03*
X015003Y013664D03*
X009294Y013664D03*
X009294Y011696D03*
D15*
X012050Y010278D03*
X012050Y015082D03*
D16*
X018050Y009930D03*
X018550Y010430D03*
X019050Y009930D03*
X020550Y010430D03*
X021050Y009930D03*
X020550Y004430D03*
X020050Y003930D03*
X019550Y004430D03*
X018550Y004430D03*
X018050Y003930D03*
X017550Y004430D03*
X017050Y003930D03*
X016550Y004430D03*
X021050Y003930D03*
X021550Y004430D03*
D17*
X024089Y012050D03*
X024089Y012365D03*
X024089Y012680D03*
X024089Y012995D03*
X024089Y013310D03*
D18*
X025763Y014629D03*
X025763Y010731D03*
D19*
X024089Y010731D03*
X024089Y014629D03*
D20*
X003350Y015680D02*
X002750Y015680D01*
X002750Y016680D02*
X003350Y016680D01*
X003350Y017680D02*
X002750Y017680D01*
X002750Y018680D02*
X003350Y018680D01*
X003350Y019680D02*
X002750Y019680D01*
X002750Y020680D02*
X003350Y020680D01*
X003350Y009680D02*
X002750Y009680D01*
X002750Y008680D02*
X003350Y008680D01*
X003350Y007680D02*
X002750Y007680D01*
X002750Y006680D02*
X003350Y006680D01*
X003350Y005680D02*
X002750Y005680D01*
D21*
X006550Y008680D03*
X006050Y009680D03*
X007050Y007680D03*
X007550Y006680D03*
X016550Y013680D03*
X017050Y012680D03*
X017050Y011680D03*
X017550Y010430D03*
X017550Y007180D03*
X020050Y007180D03*
X025050Y011680D03*
X025050Y013680D03*
X006050Y019680D03*
M02*
