G75*
%MOIN*%
%OFA0B0*%
%FSLAX24Y24*%
%IPPOS*%
%LPD*%
%AMOC8*
5,1,8,0,0,1.08239X$1,22.5*
%
%ADD10R,0.0512X0.0591*%
%ADD11R,0.0551X0.0630*%
%ADD12R,0.0594X0.0594*%
%ADD13R,0.1266X0.1266*%
%ADD14C,0.0600*%
%ADD15C,0.0560*%
%ADD16C,0.0160*%
D10*
X018426Y007180D03*
X019174Y007180D03*
D11*
X025800Y012089D03*
X025800Y013271D03*
D12*
X015003Y013664D03*
X015003Y012680D03*
X015003Y011696D03*
X009294Y011696D03*
X009294Y013664D03*
D13*
X012050Y015082D03*
X012050Y010278D03*
D14*
X003350Y009680D02*
X002750Y009680D01*
X002750Y008680D02*
X003350Y008680D01*
X003350Y007680D02*
X002750Y007680D01*
X002750Y006680D02*
X003350Y006680D01*
X003350Y005680D02*
X002750Y005680D01*
X002750Y015680D02*
X003350Y015680D01*
X003350Y016680D02*
X002750Y016680D01*
X002750Y017680D02*
X003350Y017680D01*
X003350Y018680D02*
X002750Y018680D01*
X002750Y019680D02*
X003350Y019680D01*
X003350Y020680D02*
X002750Y020680D01*
D15*
X006050Y019680D03*
X016550Y013680D03*
X017050Y012680D03*
X017050Y011680D03*
X017550Y010430D03*
X017550Y007180D03*
X020050Y007180D03*
X025050Y011680D03*
X025050Y013680D03*
X007550Y006680D03*
X007050Y007680D03*
X006550Y008680D03*
X006050Y009680D03*
D16*
X002530Y005253D02*
X002530Y001380D01*
X026570Y001380D01*
X026570Y023980D01*
X002530Y023980D01*
X002530Y021347D01*
X002611Y021380D01*
X003489Y021380D01*
X003747Y021273D01*
X003860Y021160D01*
X007205Y021160D01*
X007500Y021064D01*
X007500Y021064D01*
X007752Y020882D01*
X007752Y020882D01*
X007752Y020882D01*
X007934Y020630D01*
X007934Y020630D01*
X008030Y020335D01*
X008030Y007162D01*
X008126Y007065D01*
X008230Y006815D01*
X008230Y006545D01*
X008126Y006295D01*
X007935Y006104D01*
X007685Y006000D01*
X007415Y006000D01*
X007165Y006104D01*
X007068Y006200D01*
X003860Y006200D01*
X003747Y006087D01*
X003658Y006050D01*
X003663Y006046D01*
X003716Y005993D01*
X003761Y005932D01*
X003795Y005864D01*
X003818Y005792D01*
X003830Y005718D01*
X003830Y005700D01*
X003070Y005700D01*
X003070Y005660D01*
X003830Y005660D01*
X003830Y005642D01*
X003818Y005568D01*
X003795Y005496D01*
X003761Y005428D01*
X003716Y005367D01*
X003663Y005314D01*
X003602Y005269D01*
X003534Y005235D01*
X003462Y005212D01*
X003388Y005200D01*
X003070Y005200D01*
X003070Y005660D01*
X003030Y005660D01*
X003030Y005200D01*
X002712Y005200D01*
X002638Y005212D01*
X002566Y005235D01*
X002530Y005253D01*
X002530Y005252D02*
X002533Y005252D01*
X002530Y005094D02*
X026570Y005094D01*
X026570Y005252D02*
X003567Y005252D01*
X003748Y005411D02*
X026570Y005411D01*
X026570Y005569D02*
X003818Y005569D01*
X003828Y005728D02*
X026570Y005728D01*
X026570Y005886D02*
X003784Y005886D01*
X003664Y006045D02*
X007307Y006045D01*
X007793Y006045D02*
X026570Y006045D01*
X026570Y006203D02*
X008035Y006203D01*
X008154Y006362D02*
X026570Y006362D01*
X026570Y006520D02*
X018847Y006520D01*
X018908Y006546D02*
X019021Y006658D01*
X019040Y006705D01*
X019126Y006705D01*
X019126Y007132D01*
X019222Y007132D01*
X019222Y006705D01*
X019454Y006705D01*
X019499Y006717D01*
X019540Y006741D01*
X019574Y006774D01*
X019598Y006815D01*
X019610Y006861D01*
X019610Y007132D01*
X019222Y007132D01*
X019222Y007228D01*
X019610Y007228D01*
X019610Y007450D01*
X025455Y007450D01*
X025750Y007546D01*
X025750Y007546D01*
X026002Y007728D01*
X026002Y007728D01*
X026002Y007728D01*
X026184Y007980D01*
X026280Y008275D01*
X026280Y011426D01*
X026302Y011435D01*
X026415Y011548D01*
X026476Y011695D01*
X026476Y012484D01*
X026415Y012631D01*
X026302Y012744D01*
X026166Y012800D01*
X026186Y012812D01*
X026220Y012845D01*
X026243Y012886D01*
X026256Y012932D01*
X026256Y013213D01*
X025858Y013213D01*
X025858Y013328D01*
X026256Y013328D01*
X026256Y013609D01*
X026243Y013655D01*
X026220Y013696D01*
X026186Y013730D01*
X026145Y013753D01*
X026099Y013766D01*
X025858Y013766D01*
X025858Y013328D01*
X025742Y013328D01*
X025742Y013213D01*
X025344Y013213D01*
X025344Y012932D01*
X025357Y012886D01*
X025380Y012845D01*
X025414Y012812D01*
X025434Y012800D01*
X025298Y012744D01*
X025185Y012631D01*
X025124Y012484D01*
X025124Y012360D01*
X024915Y012360D01*
X024665Y012256D01*
X024474Y012065D01*
X024370Y011815D01*
X024370Y011545D01*
X024474Y011295D01*
X024665Y011104D01*
X024797Y011049D01*
X024848Y010978D01*
X024848Y010978D01*
X024848Y010978D01*
X025100Y010796D01*
X025320Y010724D01*
X025320Y008430D01*
X025320Y008427D01*
X025318Y008421D01*
X025314Y008416D01*
X025309Y008412D01*
X025303Y008410D01*
X025300Y008410D01*
X017895Y008410D01*
X017600Y008314D01*
X017600Y008314D01*
X017348Y008132D01*
X017348Y008132D01*
X017348Y008132D01*
X017166Y007880D01*
X017107Y007698D01*
X016974Y007565D01*
X016870Y007315D01*
X016870Y007045D01*
X016974Y006795D01*
X017165Y006604D01*
X017415Y006500D01*
X017685Y006500D01*
X017900Y006589D01*
X017943Y006546D01*
X018091Y006485D01*
X018761Y006485D01*
X018908Y006546D01*
X019029Y006679D02*
X026570Y006679D01*
X026570Y006837D02*
X019603Y006837D01*
X019610Y006996D02*
X026570Y006996D01*
X026570Y007154D02*
X019222Y007154D01*
X019174Y007180D02*
X020050Y007180D01*
X019610Y007313D02*
X026570Y007313D01*
X026570Y007471D02*
X025520Y007471D01*
X025865Y007630D02*
X026570Y007630D01*
X026570Y007788D02*
X026045Y007788D01*
X026160Y007947D02*
X026570Y007947D01*
X026570Y008105D02*
X026225Y008105D01*
X026184Y007980D02*
X026184Y007980D01*
X026276Y008264D02*
X026570Y008264D01*
X026570Y008422D02*
X026280Y008422D01*
X026280Y008581D02*
X026570Y008581D01*
X026570Y008739D02*
X026280Y008739D01*
X026280Y008898D02*
X026570Y008898D01*
X026570Y009056D02*
X026280Y009056D01*
X026280Y009215D02*
X026570Y009215D01*
X026570Y009373D02*
X026280Y009373D01*
X026280Y009532D02*
X026570Y009532D01*
X026570Y009690D02*
X026280Y009690D01*
X026280Y009849D02*
X026570Y009849D01*
X026570Y010007D02*
X026280Y010007D01*
X026280Y010166D02*
X026570Y010166D01*
X026570Y010324D02*
X026280Y010324D01*
X026280Y010483D02*
X026570Y010483D01*
X026570Y010641D02*
X026280Y010641D01*
X026280Y010800D02*
X026570Y010800D01*
X026570Y010958D02*
X026280Y010958D01*
X026280Y011117D02*
X026570Y011117D01*
X026570Y011275D02*
X026280Y011275D01*
X026298Y011434D02*
X026570Y011434D01*
X026570Y011592D02*
X026433Y011592D01*
X026476Y011751D02*
X026570Y011751D01*
X026570Y011909D02*
X026476Y011909D01*
X026476Y012068D02*
X026570Y012068D01*
X026570Y012226D02*
X026476Y012226D01*
X026476Y012385D02*
X026570Y012385D01*
X026570Y012543D02*
X026451Y012543D01*
X026344Y012702D02*
X026570Y012702D01*
X026570Y012860D02*
X026228Y012860D01*
X026256Y013019D02*
X026570Y013019D01*
X026570Y013177D02*
X026256Y013177D01*
X026256Y013336D02*
X026570Y013336D01*
X026570Y013494D02*
X026256Y013494D01*
X026244Y013653D02*
X026570Y013653D01*
X026570Y013811D02*
X017230Y013811D01*
X017230Y013815D02*
X017126Y014065D01*
X016935Y014256D01*
X016685Y014360D01*
X016415Y014360D01*
X016165Y014256D01*
X016053Y014144D01*
X015657Y014144D01*
X015639Y014188D01*
X015526Y014300D01*
X015379Y014361D01*
X014626Y014361D01*
X014479Y014300D01*
X014367Y014188D01*
X014306Y014041D01*
X014306Y013288D01*
X014367Y013141D01*
X014479Y013028D01*
X014528Y013008D01*
X014526Y013001D01*
X014526Y012698D01*
X014984Y012698D01*
X014984Y012662D01*
X014526Y012662D01*
X014526Y012359D01*
X014528Y012352D01*
X014479Y012332D01*
X014367Y012219D01*
X014306Y012072D01*
X014306Y011319D01*
X014367Y011172D01*
X014479Y011060D01*
X014626Y010999D01*
X015379Y010999D01*
X015526Y011060D01*
X015639Y011172D01*
X015650Y011200D01*
X016568Y011200D01*
X016665Y011104D01*
X016915Y011000D01*
X017158Y011000D01*
X017068Y010910D01*
X014050Y010910D01*
X014047Y010910D01*
X014041Y010912D01*
X014036Y010916D01*
X014032Y010921D01*
X014030Y010927D01*
X014030Y010930D01*
X014030Y013333D01*
X013936Y013623D01*
X013756Y013870D01*
X013756Y013870D01*
X013509Y014050D01*
X013218Y014144D01*
X012945Y014144D01*
X013022Y014222D01*
X013083Y014369D01*
X013083Y015794D01*
X013022Y015941D01*
X012910Y016054D01*
X012763Y016115D01*
X011337Y016115D01*
X011190Y016054D01*
X011078Y015941D01*
X011017Y015794D01*
X011017Y014369D01*
X011078Y014222D01*
X011155Y014144D01*
X009948Y014144D01*
X009930Y014188D01*
X009818Y014300D01*
X009671Y014361D01*
X008918Y014361D01*
X008771Y014300D01*
X008658Y014188D01*
X008597Y014041D01*
X008597Y013288D01*
X008658Y013141D01*
X008771Y013028D01*
X008918Y012967D01*
X009671Y012967D01*
X009818Y013028D01*
X009930Y013141D01*
X009948Y013184D01*
X013066Y013184D01*
X013066Y013184D01*
X013068Y013184D01*
X013069Y013183D01*
X013070Y013182D01*
X013070Y013181D01*
X013070Y013180D01*
X013070Y011023D01*
X013022Y011138D01*
X012910Y011251D01*
X012763Y011311D01*
X011337Y011311D01*
X011190Y011251D01*
X011078Y011138D01*
X011017Y010991D01*
X011017Y009566D01*
X011078Y009419D01*
X011190Y009306D01*
X011337Y009245D01*
X012763Y009245D01*
X012910Y009306D01*
X013022Y009419D01*
X013083Y009566D01*
X013083Y010735D01*
X013166Y010480D01*
X013166Y010480D01*
X013348Y010228D01*
X013348Y010228D01*
X013348Y010228D01*
X013600Y010046D01*
X013895Y009950D01*
X017068Y009950D01*
X017165Y009854D01*
X017415Y009750D01*
X017685Y009750D01*
X017935Y009854D01*
X018126Y010045D01*
X018230Y010295D01*
X018230Y010565D01*
X018126Y010815D01*
X017935Y011006D01*
X017685Y011110D01*
X017442Y011110D01*
X017626Y011295D01*
X017730Y011545D01*
X017730Y011815D01*
X017626Y012065D01*
X017435Y012256D01*
X017185Y012360D01*
X016915Y012360D01*
X016665Y012256D01*
X016568Y012160D01*
X015663Y012160D01*
X015639Y012219D01*
X015526Y012332D01*
X015478Y012352D01*
X015480Y012359D01*
X015480Y012662D01*
X015021Y012662D01*
X015021Y012698D01*
X015480Y012698D01*
X015480Y013001D01*
X015478Y013008D01*
X015526Y013028D01*
X015639Y013141D01*
X015657Y013184D01*
X016084Y013184D01*
X016165Y013104D01*
X016415Y013000D01*
X016685Y013000D01*
X016935Y013104D01*
X017126Y013295D01*
X017230Y013545D01*
X017230Y013815D01*
X017230Y013653D02*
X025356Y013653D01*
X025357Y013655D02*
X025344Y013609D01*
X025344Y013328D01*
X025742Y013328D01*
X025742Y013766D01*
X025501Y013766D01*
X025455Y013753D01*
X025414Y013730D01*
X025380Y013696D01*
X025357Y013655D01*
X025344Y013494D02*
X017209Y013494D01*
X017143Y013336D02*
X025344Y013336D01*
X025344Y013177D02*
X017009Y013177D01*
X016730Y013019D02*
X025344Y013019D01*
X025372Y012860D02*
X015480Y012860D01*
X015480Y012702D02*
X025256Y012702D01*
X025149Y012543D02*
X015480Y012543D01*
X015480Y012385D02*
X025124Y012385D01*
X024634Y012226D02*
X017466Y012226D01*
X017624Y012068D02*
X024476Y012068D01*
X024409Y011909D02*
X017691Y011909D01*
X017730Y011751D02*
X024370Y011751D01*
X024370Y011592D02*
X017730Y011592D01*
X017684Y011434D02*
X024416Y011434D01*
X024493Y011275D02*
X017607Y011275D01*
X017448Y011117D02*
X024652Y011117D01*
X024876Y010958D02*
X017984Y010958D01*
X018133Y010800D02*
X025095Y010800D01*
X025100Y010796D02*
X025100Y010796D01*
X025320Y010641D02*
X018199Y010641D01*
X018230Y010483D02*
X025320Y010483D01*
X025320Y010324D02*
X018230Y010324D01*
X018176Y010166D02*
X025320Y010166D01*
X025320Y010007D02*
X018089Y010007D01*
X017923Y009849D02*
X025320Y009849D01*
X025320Y009690D02*
X013083Y009690D01*
X013083Y009849D02*
X017177Y009849D01*
X017550Y010430D02*
X014050Y010430D01*
X014006Y010432D01*
X013963Y010438D01*
X013921Y010447D01*
X013879Y010460D01*
X013839Y010477D01*
X013800Y010497D01*
X013763Y010520D01*
X013729Y010547D01*
X013696Y010576D01*
X013667Y010609D01*
X013640Y010643D01*
X013617Y010680D01*
X013597Y010719D01*
X013580Y010759D01*
X013567Y010801D01*
X013558Y010843D01*
X013552Y010886D01*
X013550Y010930D01*
X013550Y013180D01*
X014030Y013177D02*
X014352Y013177D01*
X014306Y013336D02*
X014029Y013336D01*
X013978Y013494D02*
X014306Y013494D01*
X014306Y013653D02*
X013914Y013653D01*
X013799Y013811D02*
X014306Y013811D01*
X014306Y013970D02*
X013620Y013970D01*
X013509Y014050D02*
X013509Y014050D01*
X013268Y014128D02*
X014342Y014128D01*
X014466Y014287D02*
X013049Y014287D01*
X013083Y014445D02*
X026570Y014445D01*
X026570Y014287D02*
X016863Y014287D01*
X017064Y014128D02*
X026570Y014128D01*
X026570Y013970D02*
X017166Y013970D01*
X016550Y013680D02*
X016549Y013674D01*
X016545Y013669D01*
X016540Y013665D01*
X016534Y013664D01*
X015003Y013664D01*
X015654Y013177D02*
X016091Y013177D01*
X016370Y013019D02*
X015503Y013019D01*
X015003Y012680D02*
X017050Y012680D01*
X016634Y012226D02*
X015632Y012226D01*
X015019Y011680D02*
X015013Y011681D01*
X015008Y011685D01*
X015004Y011690D01*
X015003Y011696D01*
X015019Y011680D02*
X017050Y011680D01*
X016652Y011117D02*
X015583Y011117D01*
X014423Y011117D02*
X014030Y011117D01*
X014030Y011275D02*
X014324Y011275D01*
X014306Y011434D02*
X014030Y011434D01*
X014030Y011592D02*
X014306Y011592D01*
X014306Y011751D02*
X014030Y011751D01*
X014030Y011909D02*
X014306Y011909D01*
X014306Y012068D02*
X014030Y012068D01*
X014030Y012226D02*
X014374Y012226D01*
X014526Y012385D02*
X014030Y012385D01*
X014030Y012543D02*
X014526Y012543D01*
X014526Y012702D02*
X014030Y012702D01*
X014030Y012860D02*
X014526Y012860D01*
X014503Y013019D02*
X014030Y013019D01*
X013070Y013019D02*
X009794Y013019D01*
X009945Y013177D02*
X013070Y013177D01*
X013550Y013180D02*
X013548Y013222D01*
X013543Y013264D01*
X013534Y013305D01*
X013521Y013346D01*
X013505Y013385D01*
X013485Y013422D01*
X013462Y013458D01*
X013437Y013491D01*
X013408Y013522D01*
X013377Y013551D01*
X013344Y013576D01*
X013308Y013599D01*
X013271Y013619D01*
X013232Y013635D01*
X013191Y013648D01*
X013150Y013657D01*
X013108Y013662D01*
X013066Y013664D01*
X009294Y013664D01*
X008597Y013653D02*
X008030Y013653D01*
X008030Y013811D02*
X008597Y013811D01*
X008597Y013970D02*
X008030Y013970D01*
X008030Y014128D02*
X008633Y014128D01*
X008757Y014287D02*
X008030Y014287D01*
X008030Y014445D02*
X011017Y014445D01*
X011017Y014604D02*
X008030Y014604D01*
X008030Y014762D02*
X011017Y014762D01*
X011017Y014921D02*
X008030Y014921D01*
X008030Y015079D02*
X011017Y015079D01*
X011017Y015238D02*
X008030Y015238D01*
X008030Y015396D02*
X011017Y015396D01*
X011017Y015555D02*
X008030Y015555D01*
X008030Y015713D02*
X011017Y015713D01*
X011049Y015872D02*
X008030Y015872D01*
X008030Y016030D02*
X011167Y016030D01*
X011051Y014287D02*
X009831Y014287D01*
X008597Y013494D02*
X008030Y013494D01*
X008030Y013336D02*
X008597Y013336D01*
X008643Y013177D02*
X008030Y013177D01*
X008030Y013019D02*
X008794Y013019D01*
X008030Y012860D02*
X013070Y012860D01*
X013070Y012702D02*
X008030Y012702D01*
X008030Y012543D02*
X013070Y012543D01*
X013070Y012385D02*
X008030Y012385D01*
X008030Y012226D02*
X013070Y012226D01*
X013070Y012068D02*
X009756Y012068D01*
X009759Y012062D02*
X009735Y012103D01*
X009701Y012137D01*
X009660Y012160D01*
X009615Y012173D01*
X009313Y012173D01*
X009313Y011714D01*
X009771Y011714D01*
X009771Y012016D01*
X009759Y012062D01*
X009771Y011909D02*
X013070Y011909D01*
X013070Y011751D02*
X009771Y011751D01*
X009771Y011677D02*
X009313Y011677D01*
X009313Y011714D01*
X009276Y011714D01*
X009276Y012173D01*
X008974Y012173D01*
X008928Y012160D01*
X008887Y012137D01*
X008853Y012103D01*
X008830Y012062D01*
X008817Y012016D01*
X008817Y011714D01*
X009276Y011714D01*
X009276Y011677D01*
X009313Y011677D01*
X009313Y011219D01*
X009615Y011219D01*
X009660Y011231D01*
X009701Y011255D01*
X009735Y011288D01*
X009759Y011329D01*
X009771Y011375D01*
X009771Y011677D01*
X009771Y011592D02*
X013070Y011592D01*
X013070Y011434D02*
X009771Y011434D01*
X009722Y011275D02*
X011249Y011275D01*
X011069Y011117D02*
X008030Y011117D01*
X008030Y011275D02*
X008867Y011275D01*
X008853Y011288D02*
X008887Y011255D01*
X008928Y011231D01*
X008974Y011219D01*
X009276Y011219D01*
X009276Y011677D01*
X008817Y011677D01*
X008817Y011375D01*
X008830Y011329D01*
X008853Y011288D01*
X008817Y011434D02*
X008030Y011434D01*
X008030Y011592D02*
X008817Y011592D01*
X008817Y011751D02*
X008030Y011751D01*
X008030Y011909D02*
X008817Y011909D01*
X008833Y012068D02*
X008030Y012068D01*
X008030Y010958D02*
X011017Y010958D01*
X011017Y010800D02*
X008030Y010800D01*
X008030Y010641D02*
X011017Y010641D01*
X011017Y010483D02*
X008030Y010483D01*
X008030Y010324D02*
X011017Y010324D01*
X011017Y010166D02*
X008030Y010166D01*
X008030Y010007D02*
X011017Y010007D01*
X011017Y009849D02*
X008030Y009849D01*
X008030Y009690D02*
X011017Y009690D01*
X011031Y009532D02*
X008030Y009532D01*
X008030Y009373D02*
X011124Y009373D01*
X012976Y009373D02*
X025320Y009373D01*
X025320Y009215D02*
X008030Y009215D01*
X008030Y009056D02*
X025320Y009056D01*
X025320Y008898D02*
X008030Y008898D01*
X008030Y008739D02*
X025320Y008739D01*
X025320Y008581D02*
X008030Y008581D01*
X008030Y008422D02*
X025318Y008422D01*
X025320Y008427D02*
X025320Y008427D01*
X025800Y008430D02*
X025798Y008386D01*
X025792Y008343D01*
X025783Y008301D01*
X025770Y008259D01*
X025753Y008219D01*
X025733Y008180D01*
X025710Y008143D01*
X025683Y008109D01*
X025654Y008076D01*
X025621Y008047D01*
X025587Y008020D01*
X025550Y007997D01*
X025511Y007977D01*
X025471Y007960D01*
X025429Y007947D01*
X025387Y007938D01*
X025344Y007932D01*
X025300Y007930D01*
X018050Y007930D01*
X018006Y007928D01*
X017963Y007922D01*
X017921Y007913D01*
X017879Y007900D01*
X017839Y007883D01*
X017800Y007863D01*
X017763Y007840D01*
X017729Y007813D01*
X017696Y007784D01*
X017667Y007751D01*
X017640Y007717D01*
X017617Y007680D01*
X017597Y007641D01*
X017580Y007601D01*
X017567Y007559D01*
X017558Y007517D01*
X017552Y007474D01*
X017550Y007430D01*
X017550Y007180D01*
X018426Y007180D01*
X019126Y006996D02*
X019222Y006996D01*
X019222Y006837D02*
X019126Y006837D01*
X018005Y006520D02*
X017734Y006520D01*
X017366Y006520D02*
X008220Y006520D01*
X008230Y006679D02*
X017090Y006679D01*
X016956Y006837D02*
X008221Y006837D01*
X008155Y006996D02*
X016890Y006996D01*
X016870Y007154D02*
X008038Y007154D01*
X008030Y007313D02*
X016870Y007313D01*
X016935Y007471D02*
X008030Y007471D01*
X008030Y007630D02*
X017038Y007630D01*
X017136Y007788D02*
X008030Y007788D01*
X008030Y007947D02*
X017214Y007947D01*
X017166Y007880D02*
X017166Y007880D01*
X017329Y008105D02*
X008030Y008105D01*
X008030Y008264D02*
X017530Y008264D01*
X017116Y010958D02*
X014030Y010958D01*
X013279Y010324D02*
X013083Y010324D01*
X013083Y010166D02*
X013435Y010166D01*
X013600Y010046D02*
X013600Y010046D01*
X013719Y010007D02*
X013083Y010007D01*
X013083Y010483D02*
X013165Y010483D01*
X013113Y010641D02*
X013083Y010641D01*
X013070Y011117D02*
X013031Y011117D01*
X013070Y011275D02*
X012851Y011275D01*
X013069Y009532D02*
X025320Y009532D01*
X025800Y008430D02*
X025800Y011180D01*
X025550Y011180D01*
X025800Y011180D02*
X025800Y012089D01*
X025050Y011680D02*
X025052Y011636D01*
X025058Y011593D01*
X025067Y011551D01*
X025080Y011509D01*
X025097Y011469D01*
X025117Y011430D01*
X025140Y011393D01*
X025167Y011359D01*
X025196Y011326D01*
X025229Y011297D01*
X025263Y011270D01*
X025300Y011247D01*
X025339Y011227D01*
X025379Y011210D01*
X025421Y011197D01*
X025463Y011188D01*
X025506Y011182D01*
X025550Y011180D01*
X025742Y013336D02*
X025858Y013336D01*
X025858Y013494D02*
X025742Y013494D01*
X025742Y013653D02*
X025858Y013653D01*
X026570Y014604D02*
X013083Y014604D01*
X013083Y014762D02*
X026570Y014762D01*
X026570Y014921D02*
X013083Y014921D01*
X013083Y015079D02*
X026570Y015079D01*
X026570Y015238D02*
X013083Y015238D01*
X013083Y015396D02*
X026570Y015396D01*
X026570Y015555D02*
X013083Y015555D01*
X013083Y015713D02*
X026570Y015713D01*
X026570Y015872D02*
X013051Y015872D01*
X012933Y016030D02*
X026570Y016030D01*
X026570Y016189D02*
X008030Y016189D01*
X008030Y016347D02*
X026570Y016347D01*
X026570Y016506D02*
X008030Y016506D01*
X008030Y016664D02*
X026570Y016664D01*
X026570Y016823D02*
X008030Y016823D01*
X008030Y016981D02*
X026570Y016981D01*
X026570Y017140D02*
X008030Y017140D01*
X008030Y017298D02*
X026570Y017298D01*
X026570Y017457D02*
X008030Y017457D01*
X008030Y017615D02*
X026570Y017615D01*
X026570Y017774D02*
X008030Y017774D01*
X008030Y017932D02*
X026570Y017932D01*
X026570Y018091D02*
X008030Y018091D01*
X008030Y018249D02*
X026570Y018249D01*
X026570Y018408D02*
X008030Y018408D01*
X008030Y018566D02*
X026570Y018566D01*
X026570Y018725D02*
X008030Y018725D01*
X008030Y018883D02*
X026570Y018883D01*
X026570Y019042D02*
X008030Y019042D01*
X008030Y019200D02*
X026570Y019200D01*
X026570Y019359D02*
X008030Y019359D01*
X008030Y019517D02*
X026570Y019517D01*
X026570Y019676D02*
X008030Y019676D01*
X008030Y019834D02*
X026570Y019834D01*
X026570Y019993D02*
X008030Y019993D01*
X008030Y020151D02*
X026570Y020151D01*
X026570Y020310D02*
X008030Y020310D01*
X007987Y020468D02*
X026570Y020468D01*
X026570Y020627D02*
X007935Y020627D01*
X007822Y020785D02*
X026570Y020785D01*
X026570Y020944D02*
X007666Y020944D01*
X007384Y021102D02*
X026570Y021102D01*
X026570Y021261D02*
X003759Y021261D01*
X003050Y020680D02*
X007050Y020680D01*
X007050Y020200D02*
X006492Y020200D01*
X006626Y020065D01*
X006730Y019815D01*
X006730Y019545D01*
X006626Y019295D01*
X006435Y019104D01*
X006185Y019000D01*
X005915Y019000D01*
X005665Y019104D01*
X005568Y019200D01*
X003860Y019200D01*
X003747Y019087D01*
X003658Y019050D01*
X003663Y019046D01*
X003716Y018993D01*
X003761Y018932D01*
X003795Y018864D01*
X003818Y018792D01*
X003830Y018718D01*
X003830Y018700D01*
X003070Y018700D01*
X003070Y018660D01*
X003830Y018660D01*
X003830Y018642D01*
X003818Y018568D01*
X003795Y018496D01*
X003761Y018428D01*
X003716Y018367D01*
X003663Y018314D01*
X003658Y018310D01*
X003747Y018273D01*
X003860Y018160D01*
X006705Y018160D01*
X007000Y018064D01*
X007000Y018064D01*
X007070Y018014D01*
X007070Y020180D01*
X007070Y020183D01*
X007068Y020189D01*
X007064Y020194D01*
X007059Y020198D01*
X007053Y020200D01*
X007050Y020200D01*
X007050Y020680D02*
X007094Y020678D01*
X007137Y020672D01*
X007179Y020663D01*
X007221Y020650D01*
X007261Y020633D01*
X007300Y020613D01*
X007337Y020590D01*
X007371Y020563D01*
X007404Y020534D01*
X007433Y020501D01*
X007460Y020467D01*
X007483Y020430D01*
X007503Y020391D01*
X007520Y020351D01*
X007533Y020309D01*
X007542Y020267D01*
X007548Y020224D01*
X007550Y020180D01*
X007550Y006680D01*
X003050Y006680D01*
X003050Y007680D02*
X007050Y007680D01*
X007050Y017180D01*
X007048Y017224D01*
X007042Y017267D01*
X007033Y017309D01*
X007020Y017351D01*
X007003Y017391D01*
X006983Y017430D01*
X006960Y017467D01*
X006933Y017501D01*
X006904Y017534D01*
X006871Y017563D01*
X006837Y017590D01*
X006800Y017613D01*
X006761Y017633D01*
X006721Y017650D01*
X006679Y017663D01*
X006637Y017672D01*
X006594Y017678D01*
X006550Y017680D01*
X003050Y017680D01*
X003771Y018249D02*
X007070Y018249D01*
X007070Y018091D02*
X006919Y018091D01*
X007070Y018408D02*
X003745Y018408D01*
X003818Y018566D02*
X007070Y018566D01*
X007070Y018725D02*
X003829Y018725D01*
X003785Y018883D02*
X007070Y018883D01*
X007070Y019042D02*
X006286Y019042D01*
X006532Y019200D02*
X007070Y019200D01*
X007070Y019359D02*
X006653Y019359D01*
X006719Y019517D02*
X007070Y019517D01*
X007070Y019676D02*
X006730Y019676D01*
X006722Y019834D02*
X007070Y019834D01*
X007070Y019993D02*
X006657Y019993D01*
X006541Y020151D02*
X007070Y020151D01*
X006050Y019680D02*
X003050Y019680D01*
X003667Y019042D02*
X005814Y019042D01*
X006050Y016680D02*
X003050Y016680D01*
X006050Y016680D02*
X006094Y016678D01*
X006137Y016672D01*
X006179Y016663D01*
X006221Y016650D01*
X006261Y016633D01*
X006300Y016613D01*
X006337Y016590D01*
X006371Y016563D01*
X006404Y016534D01*
X006433Y016501D01*
X006460Y016467D01*
X006483Y016430D01*
X006503Y016391D01*
X006520Y016351D01*
X006533Y016309D01*
X006542Y016267D01*
X006548Y016224D01*
X006550Y016180D01*
X006550Y008680D01*
X003050Y008680D01*
X003050Y009680D02*
X006050Y009680D01*
X009276Y011275D02*
X009313Y011275D01*
X009313Y011434D02*
X009276Y011434D01*
X009276Y011592D02*
X009313Y011592D01*
X009313Y011751D02*
X009276Y011751D01*
X009276Y011909D02*
X009313Y011909D01*
X009313Y012068D02*
X009276Y012068D01*
X015540Y014287D02*
X016237Y014287D01*
X026570Y021419D02*
X002530Y021419D01*
X002530Y021578D02*
X026570Y021578D01*
X026570Y021736D02*
X002530Y021736D01*
X002530Y021895D02*
X026570Y021895D01*
X026570Y022053D02*
X002530Y022053D01*
X002530Y022212D02*
X026570Y022212D01*
X026570Y022370D02*
X002530Y022370D01*
X002530Y022529D02*
X026570Y022529D01*
X026570Y022687D02*
X002530Y022687D01*
X002530Y022846D02*
X026570Y022846D01*
X026570Y023004D02*
X002530Y023004D01*
X002530Y023163D02*
X026570Y023163D01*
X026570Y023321D02*
X002530Y023321D01*
X002530Y023480D02*
X026570Y023480D01*
X026570Y023638D02*
X002530Y023638D01*
X002530Y023797D02*
X026570Y023797D01*
X026570Y023955D02*
X002530Y023955D01*
X003030Y005569D02*
X003070Y005569D01*
X003070Y005411D02*
X003030Y005411D01*
X003030Y005252D02*
X003070Y005252D01*
X002530Y004935D02*
X026570Y004935D01*
X026570Y004777D02*
X002530Y004777D01*
X002530Y004618D02*
X026570Y004618D01*
X026570Y004460D02*
X002530Y004460D01*
X002530Y004301D02*
X026570Y004301D01*
X026570Y004143D02*
X002530Y004143D01*
X002530Y003984D02*
X026570Y003984D01*
X026570Y003826D02*
X002530Y003826D01*
X002530Y003667D02*
X026570Y003667D01*
X026570Y003509D02*
X002530Y003509D01*
X002530Y003350D02*
X026570Y003350D01*
X026570Y003192D02*
X002530Y003192D01*
X002530Y003033D02*
X026570Y003033D01*
X026570Y002875D02*
X002530Y002875D01*
X002530Y002716D02*
X026570Y002716D01*
X026570Y002558D02*
X002530Y002558D01*
X002530Y002399D02*
X026570Y002399D01*
X026570Y002241D02*
X002530Y002241D01*
X002530Y002082D02*
X026570Y002082D01*
X026570Y001924D02*
X002530Y001924D01*
X002530Y001765D02*
X026570Y001765D01*
X026570Y001607D02*
X002530Y001607D01*
X002530Y001448D02*
X026570Y001448D01*
M02*
