G75*
%MOIN*%
%OFA0B0*%
%FSLAX24Y24*%
%IPPOS*%
%LPD*%
%AMOC8*
5,1,8,0,0,1.08239X$1,22.5*
%
%ADD10C,0.0160*%
%ADD11R,0.0591X0.0591*%
%ADD12R,0.0630X0.0787*%
%ADD13R,0.0512X0.0591*%
%ADD14R,0.0256X0.0669*%
%ADD15R,0.0594X0.0594*%
%ADD16R,0.1266X0.1266*%
%ADD17C,0.0500*%
%ADD18R,0.0886X0.0197*%
%ADD19R,0.1575X0.0807*%
%ADD20R,0.1378X0.0807*%
%ADD21C,0.0600*%
%ADD22C,0.0280*%
%ADD23C,0.0080*%
D10*
X002050Y000180D02*
X002050Y025180D01*
X027050Y025180D01*
X027050Y000180D01*
X002050Y000180D01*
X002530Y001380D02*
X002530Y005253D01*
X002566Y005235D01*
X002638Y005212D01*
X002712Y005200D01*
X003030Y005200D01*
X003030Y005660D01*
X003070Y005660D01*
X003070Y005700D01*
X003830Y005700D01*
X003830Y005718D01*
X003818Y005792D01*
X003795Y005864D01*
X003761Y005932D01*
X003716Y005993D01*
X003663Y006046D01*
X003658Y006050D01*
X003747Y006087D01*
X003943Y006283D01*
X004050Y006541D01*
X004050Y006819D01*
X003943Y007077D01*
X003840Y007180D01*
X003943Y007283D01*
X004050Y007541D01*
X004050Y007819D01*
X003943Y008077D01*
X003840Y008180D01*
X003943Y008283D01*
X004050Y008541D01*
X004050Y008819D01*
X003943Y009077D01*
X003840Y009180D01*
X003943Y009283D01*
X004050Y009541D01*
X004050Y009819D01*
X003943Y010077D01*
X003747Y010273D01*
X003489Y010380D01*
X002611Y010380D01*
X002530Y010347D01*
X002530Y015013D01*
X002611Y014980D01*
X003489Y014980D01*
X003747Y015087D01*
X003943Y015283D01*
X004050Y015541D01*
X004050Y015819D01*
X003943Y016077D01*
X003840Y016180D01*
X003943Y016283D01*
X004050Y016541D01*
X004050Y016819D01*
X003943Y017077D01*
X003840Y017180D01*
X003943Y017283D01*
X004050Y017541D01*
X004050Y017819D01*
X003943Y018077D01*
X003747Y018273D01*
X003658Y018310D01*
X003663Y018314D01*
X003716Y018367D01*
X003761Y018428D01*
X003795Y018496D01*
X003818Y018568D01*
X003830Y018642D01*
X003830Y018660D01*
X003070Y018660D01*
X003070Y018700D01*
X003830Y018700D01*
X003830Y018718D01*
X003818Y018792D01*
X003795Y018864D01*
X003761Y018932D01*
X003716Y018993D01*
X003663Y019046D01*
X003658Y019050D01*
X003747Y019087D01*
X003943Y019283D01*
X004050Y019541D01*
X004050Y019819D01*
X003943Y020077D01*
X003840Y020180D01*
X003943Y020283D01*
X004050Y020541D01*
X004050Y020819D01*
X003943Y021077D01*
X003747Y021273D01*
X003489Y021380D01*
X002611Y021380D01*
X002530Y021347D01*
X002530Y023980D01*
X026570Y023980D01*
X026570Y015212D01*
X025843Y015212D01*
X025843Y014709D01*
X025683Y014709D01*
X025683Y015212D01*
X024951Y015212D01*
X024906Y015200D01*
X024877Y015183D01*
X024848Y015200D01*
X024802Y015212D01*
X024169Y015212D01*
X024169Y014709D01*
X024009Y014709D01*
X024009Y014549D01*
X023220Y014549D01*
X023220Y014330D01*
X023073Y014269D01*
X022961Y014157D01*
X022900Y014010D01*
X022900Y013160D01*
X021895Y013160D01*
X021600Y013064D01*
X021600Y013064D01*
X021348Y012882D01*
X021166Y012630D01*
X021150Y012580D01*
X017470Y012580D01*
X017323Y012519D01*
X017211Y012407D01*
X017150Y012260D01*
X017150Y012220D01*
X017030Y012220D01*
X017030Y013428D01*
X017090Y013573D01*
X017090Y013787D01*
X017008Y013986D01*
X016856Y014138D01*
X016657Y014220D01*
X016443Y014220D01*
X016244Y014138D01*
X016092Y013986D01*
X016010Y013787D01*
X016010Y013573D01*
X016070Y013428D01*
X016070Y010514D01*
X016000Y010564D01*
X015705Y010660D01*
X015395Y010660D01*
X015100Y010564D01*
X014848Y010382D01*
X014666Y010130D01*
X014570Y009835D01*
X014570Y008660D01*
X007995Y008660D01*
X007919Y008844D01*
X007714Y009049D01*
X007714Y009049D01*
X007445Y009160D01*
X006802Y009160D01*
X006657Y009220D01*
X006530Y009220D01*
X006530Y009428D01*
X006590Y009573D01*
X006590Y009787D01*
X006530Y009932D01*
X006530Y019428D01*
X006590Y019573D01*
X006590Y019787D01*
X006508Y019986D01*
X006356Y020138D01*
X006157Y020220D01*
X005943Y020220D01*
X005744Y020138D01*
X005592Y019986D01*
X005510Y019787D01*
X005510Y019573D01*
X005570Y019428D01*
X005570Y009932D01*
X005510Y009787D01*
X005510Y009573D01*
X005570Y009428D01*
X005570Y007525D01*
X005666Y007230D01*
X005666Y007230D01*
X005848Y006978D01*
X005848Y006978D01*
X006100Y006796D01*
X006395Y006700D01*
X007010Y006700D01*
X007010Y006573D01*
X007092Y006374D01*
X007244Y006222D01*
X007443Y006140D01*
X007657Y006140D01*
X007802Y006200D01*
X014900Y006200D01*
X014900Y005600D01*
X014961Y005453D01*
X015022Y005392D01*
X015022Y004884D01*
X015083Y004737D01*
X015195Y004624D01*
X015342Y004563D01*
X015570Y004563D01*
X015570Y003180D01*
X015570Y003177D01*
X015568Y003171D01*
X015564Y003166D01*
X015559Y003162D01*
X015553Y003160D01*
X015550Y003160D01*
X005891Y003160D01*
X005873Y003202D01*
X005761Y003314D01*
X005614Y003375D01*
X004864Y003375D01*
X004717Y003314D01*
X004605Y003202D01*
X004550Y003070D01*
X004495Y003202D01*
X004383Y003314D01*
X004236Y003375D01*
X003486Y003375D01*
X003339Y003314D01*
X003227Y003202D01*
X003180Y003090D01*
X003100Y003064D01*
X003100Y003064D01*
X002848Y002882D01*
X002848Y002882D01*
X002848Y002882D01*
X002666Y002630D01*
X002570Y002335D01*
X002570Y002025D01*
X002666Y001730D01*
X002666Y001730D01*
X002848Y001478D01*
X002848Y001478D01*
X002848Y001478D01*
X002984Y001380D01*
X002530Y001380D01*
X002530Y001448D02*
X002890Y001448D01*
X002755Y001607D02*
X002530Y001607D01*
X002530Y001765D02*
X002654Y001765D01*
X002603Y001924D02*
X002530Y001924D01*
X002530Y002082D02*
X002570Y002082D01*
X002570Y002241D02*
X002530Y002241D01*
X002530Y002399D02*
X002591Y002399D01*
X002642Y002558D02*
X002530Y002558D01*
X002666Y002630D02*
X002666Y002630D01*
X002728Y002716D02*
X002530Y002716D01*
X002530Y002875D02*
X002843Y002875D01*
X003057Y003033D02*
X002530Y003033D01*
X002530Y003192D02*
X003222Y003192D01*
X003425Y003350D02*
X002530Y003350D01*
X002530Y003509D02*
X015570Y003509D01*
X015570Y003667D02*
X002530Y003667D01*
X002530Y003826D02*
X015570Y003826D01*
X015570Y003984D02*
X002530Y003984D01*
X002530Y004143D02*
X015570Y004143D01*
X015570Y004301D02*
X002530Y004301D01*
X002530Y004460D02*
X015570Y004460D01*
X015211Y004618D02*
X002530Y004618D01*
X002530Y004777D02*
X015067Y004777D01*
X015022Y004935D02*
X002530Y004935D01*
X002530Y005094D02*
X015022Y005094D01*
X015022Y005252D02*
X003567Y005252D01*
X003534Y005235D02*
X003602Y005269D01*
X003663Y005314D01*
X003716Y005367D01*
X003761Y005428D01*
X003795Y005496D01*
X003818Y005568D01*
X003830Y005642D01*
X003830Y005660D01*
X003070Y005660D01*
X003070Y005200D01*
X003388Y005200D01*
X003462Y005212D01*
X003534Y005235D01*
X003748Y005411D02*
X015004Y005411D01*
X014913Y005569D02*
X003818Y005569D01*
X003828Y005728D02*
X014900Y005728D01*
X014900Y005886D02*
X003784Y005886D01*
X003664Y006045D02*
X014900Y006045D01*
X015050Y006680D02*
X015094Y006678D01*
X015137Y006672D01*
X015179Y006663D01*
X015221Y006650D01*
X015261Y006633D01*
X015300Y006613D01*
X015337Y006590D01*
X015371Y006563D01*
X015404Y006534D01*
X015433Y006501D01*
X015460Y006467D01*
X015483Y006430D01*
X015503Y006391D01*
X015520Y006351D01*
X015533Y006309D01*
X015542Y006267D01*
X015548Y006224D01*
X015550Y006180D01*
X015550Y005298D01*
X016050Y005298D02*
X016050Y003180D01*
X015570Y003192D02*
X005878Y003192D01*
X005675Y003350D02*
X015570Y003350D01*
X016050Y003180D02*
X016048Y003136D01*
X016042Y003093D01*
X016033Y003051D01*
X016020Y003009D01*
X016003Y002969D01*
X015983Y002930D01*
X015960Y002893D01*
X015933Y002859D01*
X015904Y002826D01*
X015871Y002797D01*
X015837Y002770D01*
X015800Y002747D01*
X015761Y002727D01*
X015721Y002710D01*
X015679Y002697D01*
X015637Y002688D01*
X015594Y002682D01*
X015550Y002680D01*
X005239Y002680D01*
X004803Y003350D02*
X004297Y003350D01*
X004500Y003192D02*
X004600Y003192D01*
X003861Y002680D02*
X003550Y002680D01*
X003506Y002678D01*
X003463Y002672D01*
X003421Y002663D01*
X003379Y002650D01*
X003339Y002633D01*
X003300Y002613D01*
X003263Y002590D01*
X003229Y002563D01*
X003196Y002534D01*
X003167Y002501D01*
X003140Y002467D01*
X003117Y002430D01*
X003097Y002391D01*
X003080Y002351D01*
X003067Y002309D01*
X003058Y002267D01*
X003052Y002224D01*
X003050Y002180D01*
X003052Y002136D01*
X003058Y002093D01*
X003067Y002051D01*
X003080Y002009D01*
X003097Y001969D01*
X003117Y001930D01*
X003140Y001893D01*
X003167Y001859D01*
X003196Y001826D01*
X003229Y001797D01*
X003263Y001770D01*
X003300Y001747D01*
X003339Y001727D01*
X003379Y001710D01*
X003421Y001697D01*
X003463Y001688D01*
X003506Y001682D01*
X003550Y001680D01*
X013999Y001680D01*
X015101Y001680D02*
X016550Y001680D01*
X019550Y001680D01*
X020050Y001680D01*
X020550Y001680D01*
X021050Y001680D01*
X021550Y001680D01*
X023300Y001680D01*
X023261Y001985D02*
X023408Y002046D01*
X023521Y002158D01*
X023540Y002205D01*
X023626Y002205D01*
X023626Y002632D01*
X023722Y002632D01*
X023722Y002205D01*
X023954Y002205D01*
X023999Y002217D01*
X024040Y002241D01*
X026570Y002241D01*
X026570Y002399D02*
X024110Y002399D01*
X024110Y002361D02*
X024110Y002632D01*
X023722Y002632D01*
X023722Y002728D01*
X023626Y002728D01*
X023626Y003155D01*
X023540Y003155D01*
X023521Y003202D01*
X023418Y003305D01*
X023521Y003408D01*
X023540Y003455D01*
X023626Y003455D01*
X023626Y003882D01*
X023722Y003882D01*
X023722Y003455D01*
X023954Y003455D01*
X023999Y003467D01*
X024040Y003491D01*
X024074Y003524D01*
X024098Y003565D01*
X024110Y003611D01*
X024110Y003882D01*
X023722Y003882D01*
X023722Y003978D01*
X023626Y003978D01*
X023626Y004405D01*
X023540Y004405D01*
X023521Y004452D01*
X023408Y004564D01*
X023261Y004625D01*
X022591Y004625D01*
X022530Y004600D01*
X022530Y004768D01*
X022578Y004884D01*
X022578Y005392D01*
X022639Y005453D01*
X022700Y005600D01*
X022700Y008760D01*
X022639Y008907D01*
X022578Y008968D01*
X022578Y009476D01*
X022530Y009592D01*
X022530Y011885D01*
X022900Y011885D01*
X022900Y011350D01*
X022961Y011203D01*
X023073Y011091D01*
X023220Y011030D01*
X023220Y010811D01*
X024009Y010811D01*
X024009Y010651D01*
X023220Y010651D01*
X023220Y010304D01*
X023233Y010258D01*
X023256Y010217D01*
X023290Y010184D01*
X023331Y010160D01*
X023377Y010148D01*
X024009Y010148D01*
X024009Y010651D01*
X024169Y010651D01*
X024169Y010148D01*
X024802Y010148D01*
X024848Y010160D01*
X024877Y010177D01*
X024906Y010160D01*
X024951Y010148D01*
X025683Y010148D01*
X025683Y010651D01*
X025843Y010651D01*
X025843Y010148D01*
X026570Y010148D01*
X026570Y001380D01*
X015596Y001380D01*
X015596Y001603D01*
X015179Y001603D01*
X015179Y001757D01*
X015596Y001757D01*
X015596Y002097D01*
X015584Y002143D01*
X015560Y002184D01*
X015544Y002200D01*
X015705Y002200D01*
X016000Y002296D01*
X016000Y002296D01*
X016150Y002405D01*
X016150Y002100D01*
X016211Y001953D01*
X016323Y001841D01*
X016470Y001780D01*
X022130Y001780D01*
X022277Y001841D01*
X022389Y001953D01*
X022432Y002057D01*
X022443Y002046D01*
X022591Y001985D01*
X023261Y001985D01*
X023300Y001680D02*
X023337Y001682D01*
X023373Y001687D01*
X023409Y001696D01*
X023443Y001708D01*
X023476Y001724D01*
X023508Y001743D01*
X023537Y001765D01*
X023564Y001790D01*
X023589Y001817D01*
X023611Y001846D01*
X023630Y001878D01*
X023646Y001911D01*
X023658Y001945D01*
X023667Y001981D01*
X023672Y002017D01*
X023674Y002054D01*
X023626Y002241D02*
X023722Y002241D01*
X023722Y002399D02*
X023626Y002399D01*
X023626Y002558D02*
X023722Y002558D01*
X023674Y002680D02*
X023674Y003930D01*
X023722Y003978D02*
X023722Y004405D01*
X023954Y004405D01*
X023999Y004393D01*
X024040Y004369D01*
X024074Y004336D01*
X024098Y004295D01*
X024110Y004249D01*
X024110Y003978D01*
X023722Y003978D01*
X023722Y003984D02*
X023626Y003984D01*
X023626Y003826D02*
X023722Y003826D01*
X023722Y003667D02*
X023626Y003667D01*
X023626Y003509D02*
X023722Y003509D01*
X023463Y003350D02*
X026570Y003350D01*
X026570Y003192D02*
X023525Y003192D01*
X023626Y003033D02*
X023722Y003033D01*
X023722Y003155D02*
X023722Y002728D01*
X024110Y002728D01*
X024110Y002999D01*
X024098Y003045D01*
X024074Y003086D01*
X024040Y003119D01*
X023999Y003143D01*
X023954Y003155D01*
X023722Y003155D01*
X023722Y002875D02*
X023626Y002875D01*
X023722Y002716D02*
X026570Y002716D01*
X026570Y002558D02*
X024110Y002558D01*
X024110Y002361D02*
X024098Y002315D01*
X024074Y002274D01*
X024040Y002241D01*
X023445Y002082D02*
X026570Y002082D01*
X026570Y001924D02*
X022359Y001924D01*
X022926Y002680D02*
X022926Y003930D01*
X022550Y003930D02*
X022506Y003932D01*
X022463Y003938D01*
X022421Y003947D01*
X022379Y003960D01*
X022339Y003977D01*
X022300Y003997D01*
X022263Y004020D01*
X022229Y004047D01*
X022196Y004076D01*
X022167Y004109D01*
X022140Y004143D01*
X022117Y004180D01*
X022097Y004219D01*
X022080Y004259D01*
X022067Y004301D01*
X022058Y004343D01*
X022052Y004386D01*
X022050Y004430D01*
X022050Y005298D01*
X021550Y005298D02*
X021550Y005180D01*
X021550Y004430D01*
X021050Y003930D02*
X021050Y005298D01*
X020550Y005298D02*
X020550Y004430D01*
X020050Y003930D02*
X020050Y005298D01*
X019550Y005298D02*
X019550Y004430D01*
X019050Y005298D02*
X019050Y006180D01*
X019052Y006210D01*
X019057Y006240D01*
X019066Y006269D01*
X019079Y006296D01*
X019094Y006322D01*
X019113Y006346D01*
X019134Y006367D01*
X019158Y006386D01*
X019184Y006401D01*
X019211Y006414D01*
X019240Y006423D01*
X019270Y006428D01*
X019300Y006430D01*
X019800Y006430D01*
X019830Y006432D01*
X019860Y006437D01*
X019889Y006446D01*
X019916Y006459D01*
X019942Y006474D01*
X019966Y006493D01*
X019987Y006514D01*
X020006Y006538D01*
X020021Y006564D01*
X020034Y006591D01*
X020043Y006620D01*
X020048Y006650D01*
X020050Y006680D01*
X020050Y007180D01*
X020050Y009062D01*
X020050Y012680D01*
X021050Y012680D02*
X017050Y012680D01*
X017030Y012702D02*
X021218Y012702D01*
X021166Y012630D02*
X021166Y012630D01*
X021333Y012860D02*
X017030Y012860D01*
X017030Y013019D02*
X021537Y013019D01*
X021348Y012882D02*
X021348Y012882D01*
X021050Y012680D02*
X021052Y012729D01*
X021058Y012779D01*
X021067Y012827D01*
X021081Y012875D01*
X021098Y012921D01*
X021119Y012966D01*
X021143Y013009D01*
X021170Y013050D01*
X021201Y013089D01*
X021235Y013125D01*
X021271Y013159D01*
X021310Y013190D01*
X021351Y013217D01*
X021394Y013241D01*
X021439Y013262D01*
X021485Y013279D01*
X021533Y013293D01*
X021581Y013302D01*
X021631Y013308D01*
X021680Y013310D01*
X024089Y013310D01*
X024680Y013310D01*
X024716Y013312D01*
X024752Y013317D01*
X024787Y013326D01*
X024822Y013338D01*
X024854Y013354D01*
X024886Y013372D01*
X024915Y013394D01*
X024942Y013418D01*
X024966Y013445D01*
X024988Y013474D01*
X025006Y013506D01*
X025022Y013538D01*
X025034Y013573D01*
X025043Y013608D01*
X025048Y013644D01*
X025050Y013680D01*
X025683Y014549D02*
X024169Y014549D01*
X024169Y014709D01*
X024958Y014709D01*
X025683Y014709D01*
X025683Y014549D01*
X025683Y014604D02*
X024169Y014604D01*
X024169Y014762D02*
X024009Y014762D01*
X024009Y014709D02*
X024009Y015212D01*
X023377Y015212D01*
X023331Y015200D01*
X023290Y015176D01*
X023256Y015143D01*
X023233Y015102D01*
X023220Y015056D01*
X023220Y014709D01*
X024009Y014709D01*
X024009Y014604D02*
X013083Y014604D01*
X013083Y014762D02*
X023220Y014762D01*
X023220Y014921D02*
X013083Y014921D01*
X013083Y015079D02*
X023227Y015079D01*
X023220Y014445D02*
X013083Y014445D01*
X013083Y014369D02*
X013083Y015794D01*
X013022Y015941D01*
X012910Y016054D01*
X012763Y016115D01*
X011337Y016115D01*
X011190Y016054D01*
X011078Y015941D01*
X011017Y015794D01*
X011017Y014369D01*
X011078Y014222D01*
X011190Y014109D01*
X011337Y014049D01*
X012763Y014049D01*
X012910Y014109D01*
X013022Y014222D01*
X013083Y014369D01*
X013049Y014287D02*
X014466Y014287D01*
X014479Y014300D02*
X014367Y014188D01*
X014306Y014041D01*
X014306Y013288D01*
X014367Y013141D01*
X014479Y013028D01*
X014528Y013008D01*
X014526Y013001D01*
X014526Y012698D01*
X014984Y012698D01*
X014984Y012662D01*
X014526Y012662D01*
X014526Y012359D01*
X014528Y012352D01*
X014479Y012332D01*
X014367Y012219D01*
X014306Y012072D01*
X014306Y011319D01*
X014367Y011172D01*
X014479Y011060D01*
X014626Y010999D01*
X015379Y010999D01*
X015526Y011060D01*
X015639Y011172D01*
X015700Y011319D01*
X015700Y012072D01*
X015639Y012219D01*
X015526Y012332D01*
X015478Y012352D01*
X015480Y012359D01*
X015480Y012662D01*
X015021Y012662D01*
X015021Y012698D01*
X015480Y012698D01*
X015480Y013001D01*
X015478Y013008D01*
X015526Y013028D01*
X015639Y013141D01*
X015700Y013288D01*
X015700Y014041D01*
X015639Y014188D01*
X015526Y014300D01*
X015379Y014361D01*
X014626Y014361D01*
X014479Y014300D01*
X014342Y014128D02*
X012928Y014128D01*
X013083Y015238D02*
X026570Y015238D01*
X026570Y015396D02*
X013083Y015396D01*
X013083Y015555D02*
X026570Y015555D01*
X026570Y015713D02*
X013083Y015713D01*
X013051Y015872D02*
X026570Y015872D01*
X026570Y016030D02*
X012933Y016030D01*
X011167Y016030D02*
X006530Y016030D01*
X006530Y015872D02*
X011049Y015872D01*
X011017Y015713D02*
X006530Y015713D01*
X006530Y015555D02*
X011017Y015555D01*
X011017Y015396D02*
X006530Y015396D01*
X006530Y015238D02*
X011017Y015238D01*
X011017Y015079D02*
X006530Y015079D01*
X006530Y014921D02*
X011017Y014921D01*
X011017Y014762D02*
X006530Y014762D01*
X006530Y014604D02*
X011017Y014604D01*
X011017Y014445D02*
X006530Y014445D01*
X006530Y014287D02*
X008757Y014287D01*
X008771Y014300D02*
X008658Y014188D01*
X008597Y014041D01*
X008597Y013288D01*
X008658Y013141D01*
X008771Y013028D01*
X008918Y012967D01*
X009671Y012967D01*
X009818Y013028D01*
X009930Y013141D01*
X009991Y013288D01*
X009991Y014041D01*
X009930Y014188D01*
X009818Y014300D01*
X009671Y014361D01*
X008918Y014361D01*
X008771Y014300D01*
X008633Y014128D02*
X006530Y014128D01*
X006530Y013970D02*
X008597Y013970D01*
X008597Y013811D02*
X006530Y013811D01*
X006530Y013653D02*
X008597Y013653D01*
X008597Y013494D02*
X006530Y013494D01*
X006530Y013336D02*
X008597Y013336D01*
X008643Y013177D02*
X006530Y013177D01*
X006530Y013019D02*
X008794Y013019D01*
X009794Y013019D02*
X014503Y013019D01*
X014526Y012860D02*
X006530Y012860D01*
X006530Y012702D02*
X014526Y012702D01*
X014526Y012543D02*
X006530Y012543D01*
X006530Y012385D02*
X014526Y012385D01*
X014374Y012226D02*
X006530Y012226D01*
X006530Y012068D02*
X008833Y012068D01*
X008830Y012062D02*
X008817Y012016D01*
X008817Y011714D01*
X009276Y011714D01*
X009276Y012173D01*
X008974Y012173D01*
X008928Y012160D01*
X008887Y012137D01*
X008853Y012103D01*
X008830Y012062D01*
X008817Y011909D02*
X006530Y011909D01*
X006530Y011751D02*
X008817Y011751D01*
X008817Y011677D02*
X008817Y011375D01*
X008830Y011329D01*
X008853Y011288D01*
X008887Y011255D01*
X008928Y011231D01*
X008974Y011219D01*
X009276Y011219D01*
X009276Y011677D01*
X009313Y011677D01*
X009313Y011714D01*
X009771Y011714D01*
X009771Y012016D01*
X009759Y012062D01*
X009735Y012103D01*
X009701Y012137D01*
X009660Y012160D01*
X009615Y012173D01*
X009313Y012173D01*
X009313Y011714D01*
X009276Y011714D01*
X009276Y011677D01*
X008817Y011677D01*
X008817Y011592D02*
X006530Y011592D01*
X006530Y011434D02*
X008817Y011434D01*
X008867Y011275D02*
X006530Y011275D01*
X006530Y011117D02*
X011069Y011117D01*
X011078Y011138D02*
X011017Y010991D01*
X011017Y009566D01*
X011078Y009419D01*
X011190Y009306D01*
X011337Y009245D01*
X012763Y009245D01*
X012910Y009306D01*
X013022Y009419D01*
X013083Y009566D01*
X013083Y010991D01*
X013022Y011138D01*
X012910Y011251D01*
X012763Y011311D01*
X011337Y011311D01*
X011190Y011251D01*
X011078Y011138D01*
X011017Y010958D02*
X006530Y010958D01*
X006530Y010800D02*
X011017Y010800D01*
X011017Y010641D02*
X006530Y010641D01*
X006530Y010483D02*
X011017Y010483D01*
X011017Y010324D02*
X006530Y010324D01*
X006530Y010166D02*
X011017Y010166D01*
X011017Y010007D02*
X006530Y010007D01*
X006565Y009849D02*
X011017Y009849D01*
X011017Y009690D02*
X006590Y009690D01*
X006573Y009532D02*
X011031Y009532D01*
X011124Y009373D02*
X006530Y009373D01*
X006671Y009215D02*
X014570Y009215D01*
X014570Y009373D02*
X012976Y009373D01*
X013069Y009532D02*
X014570Y009532D01*
X014570Y009690D02*
X013083Y009690D01*
X013083Y009849D02*
X014574Y009849D01*
X014626Y010007D02*
X013083Y010007D01*
X013083Y010166D02*
X014691Y010166D01*
X014666Y010130D02*
X014666Y010130D01*
X014807Y010324D02*
X013083Y010324D01*
X013083Y010483D02*
X014987Y010483D01*
X014848Y010382D02*
X014848Y010382D01*
X015336Y010641D02*
X013083Y010641D01*
X013083Y010800D02*
X016070Y010800D01*
X016070Y010958D02*
X013083Y010958D01*
X013031Y011117D02*
X014423Y011117D01*
X014324Y011275D02*
X012851Y011275D01*
X014306Y011434D02*
X009771Y011434D01*
X009771Y011375D02*
X009771Y011677D01*
X009313Y011677D01*
X009313Y011219D01*
X009615Y011219D01*
X009660Y011231D01*
X009701Y011255D01*
X009735Y011288D01*
X009759Y011329D01*
X009771Y011375D01*
X009722Y011275D02*
X011249Y011275D01*
X009771Y011592D02*
X014306Y011592D01*
X014306Y011751D02*
X009771Y011751D01*
X009771Y011909D02*
X014306Y011909D01*
X014306Y012068D02*
X009756Y012068D01*
X009313Y012068D02*
X009276Y012068D01*
X009276Y011909D02*
X009313Y011909D01*
X009313Y011751D02*
X009276Y011751D01*
X009276Y011592D02*
X009313Y011592D01*
X009313Y011434D02*
X009276Y011434D01*
X009276Y011275D02*
X009313Y011275D01*
X009945Y013177D02*
X014352Y013177D01*
X014306Y013336D02*
X009991Y013336D01*
X009991Y013494D02*
X014306Y013494D01*
X014306Y013653D02*
X009991Y013653D01*
X009991Y013811D02*
X014306Y013811D01*
X014306Y013970D02*
X009991Y013970D01*
X009955Y014128D02*
X011172Y014128D01*
X011051Y014287D02*
X009831Y014287D01*
X006530Y016189D02*
X026570Y016189D01*
X026570Y016347D02*
X006530Y016347D01*
X006530Y016506D02*
X026570Y016506D01*
X026570Y016664D02*
X006530Y016664D01*
X006530Y016823D02*
X026570Y016823D01*
X026570Y016981D02*
X006530Y016981D01*
X006530Y017140D02*
X026570Y017140D01*
X026570Y017298D02*
X006530Y017298D01*
X006530Y017457D02*
X026570Y017457D01*
X026570Y017615D02*
X006530Y017615D01*
X006530Y017774D02*
X026570Y017774D01*
X026570Y017932D02*
X006530Y017932D01*
X006530Y018091D02*
X026570Y018091D01*
X026570Y018249D02*
X006530Y018249D01*
X006530Y018408D02*
X026570Y018408D01*
X026570Y018566D02*
X006530Y018566D01*
X006530Y018725D02*
X026570Y018725D01*
X026570Y018883D02*
X006530Y018883D01*
X006530Y019042D02*
X026570Y019042D01*
X026570Y019200D02*
X006530Y019200D01*
X006530Y019359D02*
X026570Y019359D01*
X026570Y019517D02*
X006567Y019517D01*
X006590Y019676D02*
X026570Y019676D01*
X026570Y019834D02*
X006571Y019834D01*
X006501Y019993D02*
X026570Y019993D01*
X026570Y020151D02*
X006324Y020151D01*
X006050Y019680D02*
X006050Y009680D01*
X006050Y007680D01*
X006052Y007636D01*
X006058Y007593D01*
X006067Y007551D01*
X006080Y007509D01*
X006097Y007469D01*
X006117Y007430D01*
X006140Y007393D01*
X006167Y007359D01*
X006196Y007326D01*
X006229Y007297D01*
X006263Y007270D01*
X006300Y007247D01*
X006339Y007227D01*
X006379Y007210D01*
X006421Y007197D01*
X006463Y007188D01*
X006506Y007182D01*
X006550Y007180D01*
X017550Y007180D01*
X019300Y007180D01*
X019330Y007182D01*
X019360Y007187D01*
X019389Y007196D01*
X019416Y007209D01*
X019442Y007224D01*
X019466Y007243D01*
X019487Y007264D01*
X019506Y007288D01*
X019521Y007314D01*
X019534Y007341D01*
X019543Y007370D01*
X019548Y007400D01*
X019550Y007430D01*
X019550Y009062D01*
X019050Y009062D02*
X019050Y009930D01*
X018550Y010430D02*
X018550Y009062D01*
X018050Y009062D02*
X018050Y009930D01*
X017550Y010430D02*
X017550Y009062D01*
X017050Y009062D02*
X017050Y011680D01*
X017030Y012226D02*
X017150Y012226D01*
X017202Y012385D02*
X017030Y012385D01*
X017030Y012543D02*
X017381Y012543D01*
X017030Y013177D02*
X022900Y013177D01*
X022900Y013336D02*
X017030Y013336D01*
X017057Y013494D02*
X022900Y013494D01*
X022900Y013653D02*
X017090Y013653D01*
X017080Y013811D02*
X022900Y013811D01*
X022900Y013970D02*
X017015Y013970D01*
X016866Y014128D02*
X022949Y014128D01*
X023115Y014287D02*
X015540Y014287D01*
X015663Y014128D02*
X016234Y014128D01*
X016085Y013970D02*
X015700Y013970D01*
X015700Y013811D02*
X016020Y013811D01*
X016010Y013653D02*
X015700Y013653D01*
X015700Y013494D02*
X016043Y013494D01*
X016070Y013336D02*
X015700Y013336D01*
X015654Y013177D02*
X016070Y013177D01*
X016070Y013019D02*
X015503Y013019D01*
X015480Y012860D02*
X016070Y012860D01*
X016070Y012702D02*
X015480Y012702D01*
X015480Y012543D02*
X016070Y012543D01*
X016070Y012385D02*
X015480Y012385D01*
X015632Y012226D02*
X016070Y012226D01*
X016070Y012068D02*
X015700Y012068D01*
X015700Y011909D02*
X016070Y011909D01*
X016070Y011751D02*
X015700Y011751D01*
X015700Y011592D02*
X016070Y011592D01*
X016070Y011434D02*
X015700Y011434D01*
X015681Y011275D02*
X016070Y011275D01*
X016070Y011117D02*
X015583Y011117D01*
X015764Y010641D02*
X016070Y010641D01*
X016000Y010564D02*
X016000Y010564D01*
X016050Y009680D02*
X016050Y009062D01*
X015550Y009062D02*
X015550Y008180D01*
X015548Y008136D01*
X015542Y008093D01*
X015533Y008051D01*
X015520Y008009D01*
X015503Y007969D01*
X015483Y007930D01*
X015460Y007893D01*
X015433Y007859D01*
X015404Y007826D01*
X015371Y007797D01*
X015337Y007770D01*
X015300Y007747D01*
X015261Y007727D01*
X015221Y007710D01*
X015179Y007697D01*
X015137Y007688D01*
X015094Y007682D01*
X015050Y007680D01*
X007050Y007680D01*
X007550Y008430D02*
X007548Y008460D01*
X007543Y008490D01*
X007534Y008519D01*
X007521Y008546D01*
X007506Y008572D01*
X007487Y008596D01*
X007466Y008617D01*
X007442Y008636D01*
X007416Y008651D01*
X007389Y008664D01*
X007360Y008673D01*
X007330Y008678D01*
X007300Y008680D01*
X006550Y008680D01*
X005570Y008739D02*
X004050Y008739D01*
X004050Y008581D02*
X005570Y008581D01*
X005570Y008422D02*
X004001Y008422D01*
X003923Y008264D02*
X005570Y008264D01*
X005570Y008105D02*
X003915Y008105D01*
X003997Y007947D02*
X005570Y007947D01*
X005570Y007788D02*
X004050Y007788D01*
X004050Y007630D02*
X005570Y007630D01*
X005587Y007471D02*
X004021Y007471D01*
X003955Y007313D02*
X005639Y007313D01*
X005721Y007154D02*
X003866Y007154D01*
X003977Y006996D02*
X005836Y006996D01*
X006043Y006837D02*
X004043Y006837D01*
X004050Y006679D02*
X007010Y006679D01*
X007032Y006520D02*
X004041Y006520D01*
X003976Y006362D02*
X007105Y006362D01*
X007290Y006203D02*
X003863Y006203D01*
X003070Y005569D02*
X003030Y005569D01*
X003030Y005411D02*
X003070Y005411D01*
X003070Y005252D02*
X003030Y005252D01*
X002533Y005252D02*
X002530Y005252D01*
X006100Y006796D02*
X006100Y006796D01*
X007550Y006680D02*
X015050Y006680D01*
X014800Y008180D02*
X007800Y008180D01*
X007770Y008182D01*
X007740Y008187D01*
X007711Y008196D01*
X007684Y008209D01*
X007658Y008224D01*
X007634Y008243D01*
X007613Y008264D01*
X007594Y008288D01*
X007579Y008314D01*
X007566Y008341D01*
X007557Y008370D01*
X007552Y008400D01*
X007550Y008430D01*
X007962Y008739D02*
X014570Y008739D01*
X014570Y008898D02*
X007865Y008898D01*
X007919Y008844D02*
X007919Y008844D01*
X007696Y009056D02*
X014570Y009056D01*
X015050Y008430D02*
X015048Y008400D01*
X015043Y008370D01*
X015034Y008341D01*
X015021Y008314D01*
X015006Y008288D01*
X014987Y008264D01*
X014966Y008243D01*
X014942Y008224D01*
X014916Y008209D01*
X014889Y008196D01*
X014860Y008187D01*
X014830Y008182D01*
X014800Y008180D01*
X015050Y008430D02*
X015050Y009680D01*
X015052Y009724D01*
X015058Y009767D01*
X015067Y009809D01*
X015080Y009851D01*
X015097Y009891D01*
X015117Y009930D01*
X015140Y009967D01*
X015167Y010001D01*
X015196Y010034D01*
X015229Y010063D01*
X015263Y010090D01*
X015300Y010113D01*
X015339Y010133D01*
X015379Y010150D01*
X015421Y010163D01*
X015463Y010172D01*
X015506Y010178D01*
X015550Y010180D01*
X015594Y010178D01*
X015637Y010172D01*
X015679Y010163D01*
X015721Y010150D01*
X015761Y010133D01*
X015800Y010113D01*
X015837Y010090D01*
X015871Y010063D01*
X015904Y010034D01*
X015933Y010001D01*
X015960Y009967D01*
X015983Y009930D01*
X016003Y009891D01*
X016020Y009851D01*
X016033Y009809D01*
X016042Y009767D01*
X016048Y009724D01*
X016050Y009680D01*
X016550Y009062D02*
X016550Y013680D01*
X020550Y010430D02*
X020550Y009062D01*
X021050Y009062D02*
X021050Y009930D01*
X021550Y009062D02*
X021550Y012180D01*
X021552Y012224D01*
X021558Y012267D01*
X021567Y012309D01*
X021580Y012351D01*
X021597Y012391D01*
X021617Y012430D01*
X021640Y012467D01*
X021667Y012501D01*
X021696Y012534D01*
X021729Y012563D01*
X021763Y012590D01*
X021800Y012613D01*
X021839Y012633D01*
X021879Y012650D01*
X021921Y012663D01*
X021963Y012672D01*
X022006Y012678D01*
X022050Y012680D01*
X024089Y012680D01*
X024089Y012365D02*
X022235Y012365D01*
X022209Y012363D01*
X022183Y012358D01*
X022158Y012348D01*
X022135Y012336D01*
X022114Y012320D01*
X022095Y012301D01*
X022079Y012280D01*
X022067Y012257D01*
X022057Y012232D01*
X022052Y012206D01*
X022050Y012180D01*
X022050Y009062D01*
X022578Y009056D02*
X026570Y009056D01*
X026570Y008898D02*
X022643Y008898D01*
X022700Y008739D02*
X026570Y008739D01*
X026570Y008581D02*
X022700Y008581D01*
X022700Y008422D02*
X026570Y008422D01*
X026570Y008264D02*
X022700Y008264D01*
X022700Y008105D02*
X026570Y008105D01*
X026570Y007947D02*
X022700Y007947D01*
X022700Y007788D02*
X026570Y007788D01*
X026570Y007630D02*
X022700Y007630D01*
X022700Y007471D02*
X026570Y007471D01*
X026570Y007313D02*
X022700Y007313D01*
X022700Y007154D02*
X026570Y007154D01*
X026570Y006996D02*
X022700Y006996D01*
X022700Y006837D02*
X026570Y006837D01*
X026570Y006679D02*
X022700Y006679D01*
X022700Y006520D02*
X026570Y006520D01*
X026570Y006362D02*
X022700Y006362D01*
X022700Y006203D02*
X026570Y006203D01*
X026570Y006045D02*
X022700Y006045D01*
X022700Y005886D02*
X026570Y005886D01*
X026570Y005728D02*
X022700Y005728D01*
X022687Y005569D02*
X026570Y005569D01*
X026570Y005411D02*
X022596Y005411D01*
X022578Y005252D02*
X026570Y005252D01*
X026570Y005094D02*
X022578Y005094D01*
X022578Y004935D02*
X026570Y004935D01*
X026570Y004777D02*
X022533Y004777D01*
X022530Y004618D02*
X022573Y004618D01*
X023279Y004618D02*
X026570Y004618D01*
X026570Y004460D02*
X023513Y004460D01*
X023626Y004301D02*
X023722Y004301D01*
X023722Y004143D02*
X023626Y004143D01*
X024110Y004143D02*
X026570Y004143D01*
X026570Y004301D02*
X024094Y004301D01*
X024110Y003984D02*
X026570Y003984D01*
X026570Y003826D02*
X024110Y003826D01*
X024110Y003667D02*
X026570Y003667D01*
X026570Y003509D02*
X024058Y003509D01*
X024101Y003033D02*
X026570Y003033D01*
X026570Y002875D02*
X024110Y002875D01*
X026570Y001765D02*
X015596Y001765D01*
X015596Y001924D02*
X016241Y001924D01*
X016158Y002082D02*
X015596Y002082D01*
X015830Y002241D02*
X016150Y002241D01*
X016142Y002399D02*
X016150Y002399D01*
X015179Y001607D02*
X026570Y001607D01*
X026570Y001448D02*
X015596Y001448D01*
X017050Y003930D02*
X017050Y005298D01*
X017550Y005298D02*
X017550Y004430D01*
X018050Y003930D02*
X018050Y005298D01*
X018550Y005298D02*
X018550Y004430D01*
X016550Y004430D02*
X016550Y005298D01*
X022530Y009690D02*
X026570Y009690D01*
X026570Y009532D02*
X022555Y009532D01*
X022578Y009373D02*
X026570Y009373D01*
X026570Y009215D02*
X022578Y009215D01*
X022530Y009849D02*
X026570Y009849D01*
X026570Y010007D02*
X022530Y010007D01*
X022530Y010166D02*
X023321Y010166D01*
X023220Y010324D02*
X022530Y010324D01*
X022530Y010483D02*
X023220Y010483D01*
X023220Y010641D02*
X022530Y010641D01*
X022530Y010800D02*
X024009Y010800D01*
X024009Y010641D02*
X024169Y010641D01*
X024169Y010651D02*
X024169Y010811D01*
X024958Y010811D01*
X025683Y010811D01*
X025683Y010651D01*
X024169Y010651D01*
X024169Y010800D02*
X025683Y010800D01*
X025683Y010641D02*
X025843Y010641D01*
X025843Y010483D02*
X025683Y010483D01*
X025683Y010324D02*
X025843Y010324D01*
X025843Y010166D02*
X025683Y010166D01*
X024896Y010166D02*
X024858Y010166D01*
X024169Y010166D02*
X024009Y010166D01*
X024009Y010324D02*
X024169Y010324D01*
X024169Y010483D02*
X024009Y010483D01*
X023220Y010958D02*
X022530Y010958D01*
X022530Y011117D02*
X023048Y011117D01*
X022931Y011275D02*
X022530Y011275D01*
X022530Y011434D02*
X022900Y011434D01*
X022900Y011592D02*
X022530Y011592D01*
X022530Y011751D02*
X022900Y011751D01*
X024089Y012050D02*
X024680Y012050D01*
X024716Y012048D01*
X024752Y012043D01*
X024787Y012034D01*
X024822Y012022D01*
X024854Y012006D01*
X024886Y011988D01*
X024915Y011966D01*
X024942Y011942D01*
X024966Y011915D01*
X024988Y011886D01*
X025006Y011854D01*
X025022Y011822D01*
X025034Y011787D01*
X025043Y011752D01*
X025048Y011716D01*
X025050Y011680D01*
X025683Y014762D02*
X025843Y014762D01*
X025843Y014921D02*
X025683Y014921D01*
X025683Y015079D02*
X025843Y015079D01*
X024169Y015079D02*
X024009Y015079D01*
X024009Y014921D02*
X024169Y014921D01*
X026570Y020310D02*
X003954Y020310D01*
X004020Y020468D02*
X026570Y020468D01*
X026570Y020627D02*
X004050Y020627D01*
X004050Y020785D02*
X026570Y020785D01*
X026570Y020944D02*
X003999Y020944D01*
X003918Y021102D02*
X026570Y021102D01*
X026570Y021261D02*
X003759Y021261D01*
X003869Y020151D02*
X005776Y020151D01*
X005599Y019993D02*
X003978Y019993D01*
X004044Y019834D02*
X005529Y019834D01*
X005510Y019676D02*
X004050Y019676D01*
X004040Y019517D02*
X005533Y019517D01*
X005570Y019359D02*
X003975Y019359D01*
X003860Y019200D02*
X005570Y019200D01*
X005570Y019042D02*
X003667Y019042D01*
X003785Y018883D02*
X005570Y018883D01*
X005570Y018725D02*
X003829Y018725D01*
X003818Y018566D02*
X005570Y018566D01*
X005570Y018408D02*
X003745Y018408D01*
X003771Y018249D02*
X005570Y018249D01*
X005570Y018091D02*
X003929Y018091D01*
X004003Y017932D02*
X005570Y017932D01*
X005570Y017774D02*
X004050Y017774D01*
X004050Y017615D02*
X005570Y017615D01*
X005570Y017457D02*
X004015Y017457D01*
X003949Y017298D02*
X005570Y017298D01*
X005570Y017140D02*
X003880Y017140D01*
X003983Y016981D02*
X005570Y016981D01*
X005570Y016823D02*
X004049Y016823D01*
X004050Y016664D02*
X005570Y016664D01*
X005570Y016506D02*
X004035Y016506D01*
X003970Y016347D02*
X005570Y016347D01*
X005570Y016189D02*
X003848Y016189D01*
X003963Y016030D02*
X005570Y016030D01*
X005570Y015872D02*
X004028Y015872D01*
X004050Y015713D02*
X005570Y015713D01*
X005570Y015555D02*
X004050Y015555D01*
X003990Y015396D02*
X005570Y015396D01*
X005570Y015238D02*
X003897Y015238D01*
X003728Y015079D02*
X005570Y015079D01*
X005570Y014921D02*
X002530Y014921D01*
X002530Y014762D02*
X005570Y014762D01*
X005570Y014604D02*
X002530Y014604D01*
X002530Y014445D02*
X005570Y014445D01*
X005570Y014287D02*
X002530Y014287D01*
X002530Y014128D02*
X005570Y014128D01*
X005570Y013970D02*
X002530Y013970D01*
X002530Y013811D02*
X005570Y013811D01*
X005570Y013653D02*
X002530Y013653D01*
X002530Y013494D02*
X005570Y013494D01*
X005570Y013336D02*
X002530Y013336D01*
X002530Y013177D02*
X005570Y013177D01*
X005570Y013019D02*
X002530Y013019D01*
X002530Y012860D02*
X005570Y012860D01*
X005570Y012702D02*
X002530Y012702D01*
X002530Y012543D02*
X005570Y012543D01*
X005570Y012385D02*
X002530Y012385D01*
X002530Y012226D02*
X005570Y012226D01*
X005570Y012068D02*
X002530Y012068D01*
X002530Y011909D02*
X005570Y011909D01*
X005570Y011751D02*
X002530Y011751D01*
X002530Y011592D02*
X005570Y011592D01*
X005570Y011434D02*
X002530Y011434D01*
X002530Y011275D02*
X005570Y011275D01*
X005570Y011117D02*
X002530Y011117D01*
X002530Y010958D02*
X005570Y010958D01*
X005570Y010800D02*
X002530Y010800D01*
X002530Y010641D02*
X005570Y010641D01*
X005570Y010483D02*
X002530Y010483D01*
X003624Y010324D02*
X005570Y010324D01*
X005570Y010166D02*
X003854Y010166D01*
X003972Y010007D02*
X005570Y010007D01*
X005535Y009849D02*
X004038Y009849D01*
X004050Y009690D02*
X005510Y009690D01*
X005527Y009532D02*
X004046Y009532D01*
X003981Y009373D02*
X005570Y009373D01*
X005570Y009215D02*
X003874Y009215D01*
X003952Y009056D02*
X005570Y009056D01*
X005570Y008898D02*
X004018Y008898D01*
X002530Y021419D02*
X026570Y021419D01*
X026570Y021578D02*
X002530Y021578D01*
X002530Y021736D02*
X026570Y021736D01*
X026570Y021895D02*
X002530Y021895D01*
X002530Y022053D02*
X026570Y022053D01*
X026570Y022212D02*
X002530Y022212D01*
X002530Y022370D02*
X026570Y022370D01*
X026570Y022529D02*
X002530Y022529D01*
X002530Y022687D02*
X026570Y022687D01*
X026570Y022846D02*
X002530Y022846D01*
X002530Y023004D02*
X026570Y023004D01*
X026570Y023163D02*
X002530Y023163D01*
X002530Y023321D02*
X026570Y023321D01*
X026570Y023480D02*
X002530Y023480D01*
X002530Y023638D02*
X026570Y023638D01*
X026570Y023797D02*
X002530Y023797D01*
X002530Y023955D02*
X026570Y023955D01*
D11*
X005239Y002680D03*
X003861Y002680D03*
D12*
X013999Y001680D03*
X015101Y001680D03*
D13*
X022926Y002680D03*
X023674Y002680D03*
X023674Y003930D03*
X022926Y003930D03*
D14*
X022050Y005298D03*
X021550Y005298D03*
X021050Y005298D03*
X020550Y005298D03*
X020050Y005298D03*
X019550Y005298D03*
X019050Y005298D03*
X018550Y005298D03*
X018050Y005298D03*
X017550Y005298D03*
X017050Y005298D03*
X016550Y005298D03*
X016050Y005298D03*
X015550Y005298D03*
X015550Y009062D03*
X016050Y009062D03*
X016550Y009062D03*
X017050Y009062D03*
X017550Y009062D03*
X018050Y009062D03*
X018550Y009062D03*
X019050Y009062D03*
X019550Y009062D03*
X020050Y009062D03*
X020550Y009062D03*
X021050Y009062D03*
X021550Y009062D03*
X022050Y009062D03*
D15*
X015003Y011696D03*
X015003Y012680D03*
X015003Y013664D03*
X009294Y013664D03*
X009294Y011696D03*
D16*
X012050Y010278D03*
X012050Y015082D03*
D17*
X018050Y009930D03*
X018550Y010430D03*
X019050Y009930D03*
X020550Y010430D03*
X021050Y009930D03*
X020550Y004430D03*
X020050Y003930D03*
X019550Y004430D03*
X018550Y004430D03*
X018050Y003930D03*
X017550Y004430D03*
X017050Y003930D03*
X016550Y004430D03*
X021050Y003930D03*
X021550Y004430D03*
D18*
X024089Y012050D03*
X024089Y012365D03*
X024089Y012680D03*
X024089Y012995D03*
X024089Y013310D03*
D19*
X025763Y014629D03*
X025763Y010731D03*
D20*
X024089Y010731D03*
X024089Y014629D03*
D21*
X003350Y015680D02*
X002750Y015680D01*
X002750Y016680D02*
X003350Y016680D01*
X003350Y017680D02*
X002750Y017680D01*
X002750Y018680D02*
X003350Y018680D01*
X003350Y019680D02*
X002750Y019680D01*
X002750Y020680D02*
X003350Y020680D01*
X003350Y009680D02*
X002750Y009680D01*
X002750Y008680D02*
X003350Y008680D01*
X003350Y007680D02*
X002750Y007680D01*
X002750Y006680D02*
X003350Y006680D01*
X003350Y005680D02*
X002750Y005680D01*
D22*
X006550Y008680D03*
X006050Y009680D03*
X007050Y007680D03*
X007550Y006680D03*
X016550Y013680D03*
X017050Y012680D03*
X017050Y011680D03*
X017550Y010430D03*
X017550Y007180D03*
X020050Y007180D03*
X025050Y011680D03*
X025050Y013680D03*
X006050Y019680D03*
D23*
X018050Y012680D02*
X018050Y009062D01*
X018550Y009062D02*
X018550Y012680D01*
X019050Y012680D02*
X019050Y009062D01*
X020550Y009062D02*
X020550Y012680D01*
X021050Y012680D02*
X021050Y009062D01*
X021050Y005298D02*
X021050Y001680D01*
X020550Y001680D02*
X020550Y005298D01*
X020050Y005298D02*
X020050Y001680D01*
X019550Y001680D02*
X019550Y005298D01*
X018550Y005298D02*
X018550Y001680D01*
X018050Y001680D02*
X018050Y005298D01*
X017550Y005298D02*
X017550Y001680D01*
X017050Y001680D02*
X017050Y005298D01*
X016550Y005298D02*
X016550Y001680D01*
X021550Y001680D02*
X021550Y005180D01*
M02*
