G75*
%MOIN*%
%OFA0B0*%
%FSLAX24Y24*%
%IPPOS*%
%LPD*%
%AMOC8*
5,1,8,0,0,1.08239X$1,22.5*
%
%ADD10C,0.0160*%
%ADD11R,0.0631X0.0631*%
%ADD12R,0.0670X0.0827*%
%ADD13R,0.0552X0.0631*%
%ADD14R,0.0296X0.0709*%
%ADD15R,0.0634X0.0634*%
%ADD16R,0.1306X0.1306*%
%ADD17C,0.0540*%
%ADD18R,0.0926X0.0237*%
%ADD19R,0.1615X0.0847*%
%ADD20R,0.1418X0.0847*%
%ADD21C,0.0640*%
D10*
X002050Y000180D02*
X002050Y025180D01*
X027050Y025180D01*
X027050Y000180D01*
X002050Y000180D01*
D11*
X003861Y002680D03*
X005239Y002680D03*
D12*
X013999Y001680D03*
X015101Y001680D03*
D13*
X022926Y002680D03*
X023674Y002680D03*
X023674Y003930D03*
X022926Y003930D03*
D14*
X022050Y005298D03*
X021550Y005298D03*
X021050Y005298D03*
X020550Y005298D03*
X020050Y005298D03*
X019550Y005298D03*
X019050Y005298D03*
X018550Y005298D03*
X018050Y005298D03*
X017550Y005298D03*
X017050Y005298D03*
X016550Y005298D03*
X016050Y005298D03*
X015550Y005298D03*
X015550Y009062D03*
X016050Y009062D03*
X016550Y009062D03*
X017050Y009062D03*
X017550Y009062D03*
X018050Y009062D03*
X018550Y009062D03*
X019050Y009062D03*
X019550Y009062D03*
X020050Y009062D03*
X020550Y009062D03*
X021050Y009062D03*
X021550Y009062D03*
X022050Y009062D03*
D15*
X015003Y011696D03*
X015003Y012680D03*
X015003Y013664D03*
X009294Y013664D03*
X009294Y011696D03*
D16*
X012050Y010278D03*
X012050Y015082D03*
D17*
X018050Y009930D03*
X018550Y010430D03*
X019050Y009930D03*
X020550Y010430D03*
X021050Y009930D03*
X020550Y004430D03*
X020050Y003930D03*
X019550Y004430D03*
X018550Y004430D03*
X018050Y003930D03*
X017550Y004430D03*
X017050Y003930D03*
X016550Y004430D03*
X021050Y003930D03*
X021550Y004430D03*
D18*
X024089Y012050D03*
X024089Y012365D03*
X024089Y012680D03*
X024089Y012995D03*
X024089Y013310D03*
D19*
X025763Y014629D03*
X025763Y010731D03*
D20*
X024089Y010731D03*
X024089Y014629D03*
D21*
X003350Y015680D02*
X002750Y015680D01*
X002750Y016680D02*
X003350Y016680D01*
X003350Y017680D02*
X002750Y017680D01*
X002750Y018680D02*
X003350Y018680D01*
X003350Y019680D02*
X002750Y019680D01*
X002750Y020680D02*
X003350Y020680D01*
X003350Y009680D02*
X002750Y009680D01*
X002750Y008680D02*
X003350Y008680D01*
X003350Y007680D02*
X002750Y007680D01*
X002750Y006680D02*
X003350Y006680D01*
X003350Y005680D02*
X002750Y005680D01*
M02*
