G75*
%MOIN*%
%OFA0B0*%
%FSLAX24Y24*%
%IPPOS*%
%LPD*%
%AMOC8*
5,1,8,0,0,1.08239X$1,22.5*
%
%ADD10C,0.0160*%
%ADD11R,0.0512X0.0591*%
%ADD12R,0.0551X0.0630*%
%ADD13R,0.0594X0.0594*%
%ADD14R,0.1266X0.1266*%
%ADD15C,0.0600*%
%ADD16C,0.0280*%
D10*
X002050Y000180D02*
X002050Y025180D01*
X027050Y025180D01*
X027050Y000180D01*
X002050Y000180D01*
X002530Y001380D02*
X002530Y004753D01*
X002566Y004735D01*
X002638Y004712D01*
X002712Y004700D01*
X003030Y004700D01*
X003030Y005160D01*
X003070Y005160D01*
X003070Y005200D01*
X003830Y005200D01*
X003830Y005218D01*
X003818Y005292D01*
X003795Y005364D01*
X003761Y005432D01*
X003716Y005493D01*
X003663Y005546D01*
X003658Y005550D01*
X003747Y005587D01*
X003860Y005700D01*
X007205Y005700D01*
X007500Y005796D01*
X007500Y005796D01*
X007752Y005978D01*
X007752Y005978D01*
X007752Y005978D01*
X007934Y006230D01*
X007968Y006334D01*
X008008Y006374D01*
X008090Y006573D01*
X008090Y006787D01*
X008030Y006932D01*
X008030Y007640D01*
X008157Y007640D01*
X008356Y007722D01*
X008508Y007874D01*
X008590Y008073D01*
X008590Y008287D01*
X008530Y008432D01*
X008530Y013180D01*
X008530Y013183D01*
X008532Y013189D01*
X008536Y013194D01*
X008541Y013198D01*
X008547Y013200D01*
X008550Y013200D01*
X008634Y013200D01*
X008658Y013141D01*
X008771Y013028D01*
X008918Y012967D01*
X009671Y012967D01*
X009818Y013028D01*
X009930Y013141D01*
X009991Y013288D01*
X009991Y014041D01*
X009930Y014188D01*
X009818Y014300D01*
X009671Y014361D01*
X008918Y014361D01*
X008771Y014300D01*
X008658Y014188D01*
X008647Y014160D01*
X008395Y014160D01*
X008100Y014064D01*
X008100Y014064D01*
X008030Y014014D01*
X008030Y020335D01*
X007934Y020630D01*
X007934Y020630D01*
X007752Y020882D01*
X007500Y021064D01*
X007205Y021160D01*
X003860Y021160D01*
X003747Y021273D01*
X003489Y021380D01*
X002611Y021380D01*
X002530Y021347D01*
X002530Y023980D01*
X026570Y023980D01*
X026570Y001380D01*
X002530Y001380D01*
X002530Y001448D02*
X026570Y001448D01*
X026570Y001607D02*
X002530Y001607D01*
X002530Y001765D02*
X026570Y001765D01*
X026570Y001924D02*
X002530Y001924D01*
X002530Y002082D02*
X026570Y002082D01*
X026570Y002241D02*
X002530Y002241D01*
X002530Y002399D02*
X026570Y002399D01*
X026570Y002558D02*
X002530Y002558D01*
X002530Y002716D02*
X026570Y002716D01*
X026570Y002875D02*
X002530Y002875D01*
X002530Y003033D02*
X026570Y003033D01*
X026570Y003192D02*
X002530Y003192D01*
X002530Y003350D02*
X026570Y003350D01*
X026570Y003509D02*
X002530Y003509D01*
X002530Y003667D02*
X026570Y003667D01*
X026570Y003826D02*
X002530Y003826D01*
X002530Y003984D02*
X026570Y003984D01*
X026570Y004143D02*
X002530Y004143D01*
X002530Y004301D02*
X026570Y004301D01*
X026570Y004460D02*
X002530Y004460D01*
X002530Y004618D02*
X026570Y004618D01*
X026570Y004777D02*
X003611Y004777D01*
X003602Y004769D02*
X003663Y004814D01*
X003716Y004867D01*
X003761Y004928D01*
X003795Y004996D01*
X003818Y005068D01*
X003830Y005142D01*
X003830Y005160D01*
X003070Y005160D01*
X003070Y004700D01*
X003388Y004700D01*
X003462Y004712D01*
X003534Y004735D01*
X003602Y004769D01*
X003764Y004935D02*
X026570Y004935D01*
X026570Y005094D02*
X003822Y005094D01*
X003825Y005252D02*
X026570Y005252D01*
X026570Y005411D02*
X003771Y005411D01*
X003704Y005569D02*
X026570Y005569D01*
X026570Y005728D02*
X007290Y005728D01*
X007624Y005886D02*
X026570Y005886D01*
X026570Y006045D02*
X007800Y006045D01*
X007915Y006203D02*
X026570Y006203D01*
X026570Y006362D02*
X007995Y006362D01*
X007934Y006230D02*
X007934Y006230D01*
X008068Y006520D02*
X018005Y006520D01*
X017943Y006546D02*
X018091Y006485D01*
X018761Y006485D01*
X018908Y006546D01*
X019021Y006658D01*
X019040Y006705D01*
X019126Y006705D01*
X019126Y007132D01*
X019222Y007132D01*
X019222Y006705D01*
X019454Y006705D01*
X019499Y006717D01*
X019540Y006741D01*
X019574Y006774D01*
X019598Y006815D01*
X019610Y006861D01*
X019610Y007132D01*
X019222Y007132D01*
X019222Y007228D01*
X019610Y007228D01*
X019610Y007450D01*
X025455Y007450D01*
X025750Y007546D01*
X025750Y007546D01*
X026002Y007728D01*
X026002Y007728D01*
X026002Y007728D01*
X026184Y007980D01*
X026280Y008275D01*
X026280Y011426D01*
X026302Y011435D01*
X026415Y011548D01*
X026476Y011695D01*
X026476Y012484D01*
X026415Y012631D01*
X026302Y012744D01*
X026166Y012800D01*
X026186Y012812D01*
X026220Y012845D01*
X026243Y012886D01*
X026256Y012932D01*
X026256Y013213D01*
X025858Y013213D01*
X025858Y013328D01*
X026256Y013328D01*
X026256Y013609D01*
X026243Y013655D01*
X026220Y013696D01*
X026186Y013730D01*
X026145Y013753D01*
X026099Y013766D01*
X025858Y013766D01*
X025858Y013328D01*
X025742Y013328D01*
X025742Y013213D01*
X025344Y013213D01*
X025344Y012932D01*
X025357Y012886D01*
X025380Y012845D01*
X025414Y012812D01*
X025434Y012800D01*
X025298Y012744D01*
X025185Y012631D01*
X025124Y012484D01*
X025124Y012220D01*
X024943Y012220D01*
X024744Y012138D01*
X024592Y011986D01*
X024510Y011787D01*
X024510Y011573D01*
X024592Y011374D01*
X024632Y011334D01*
X024666Y011230D01*
X024666Y011230D01*
X024848Y010978D01*
X024848Y010978D01*
X024848Y010978D01*
X025100Y010796D01*
X025320Y010724D01*
X025320Y008430D01*
X025320Y008427D01*
X025318Y008421D01*
X025314Y008416D01*
X025309Y008412D01*
X025303Y008410D01*
X025300Y008410D01*
X017955Y008410D01*
X017895Y008410D01*
X017895Y008410D01*
X017600Y008314D01*
X017600Y008314D01*
X017348Y008132D01*
X017348Y008132D01*
X017348Y008132D01*
X017166Y007880D01*
X017070Y007585D01*
X017070Y007432D01*
X017010Y007287D01*
X017010Y007073D01*
X017092Y006874D01*
X017244Y006722D01*
X017443Y006640D01*
X017657Y006640D01*
X017802Y006700D01*
X017814Y006700D01*
X017831Y006658D01*
X017943Y006546D01*
X017823Y006679D02*
X017750Y006679D01*
X017350Y006679D02*
X008090Y006679D01*
X008069Y006837D02*
X017129Y006837D01*
X017042Y006996D02*
X008030Y006996D01*
X008030Y007154D02*
X017010Y007154D01*
X017020Y007313D02*
X008030Y007313D01*
X008030Y007471D02*
X017070Y007471D01*
X017084Y007630D02*
X008030Y007630D01*
X008422Y007788D02*
X017136Y007788D01*
X017166Y007880D02*
X017166Y007880D01*
X017214Y007947D02*
X008538Y007947D01*
X008590Y008105D02*
X017329Y008105D01*
X017530Y008264D02*
X008590Y008264D01*
X008534Y008422D02*
X025318Y008422D01*
X025800Y008430D02*
X025798Y008386D01*
X025792Y008343D01*
X025783Y008301D01*
X025770Y008259D01*
X025753Y008219D01*
X025733Y008180D01*
X025710Y008143D01*
X025683Y008109D01*
X025654Y008076D01*
X025621Y008047D01*
X025587Y008020D01*
X025550Y007997D01*
X025511Y007977D01*
X025471Y007960D01*
X025429Y007947D01*
X025387Y007938D01*
X025344Y007932D01*
X025300Y007930D01*
X018050Y007930D01*
X018006Y007928D01*
X017963Y007922D01*
X017921Y007913D01*
X017879Y007900D01*
X017839Y007883D01*
X017800Y007863D01*
X017763Y007840D01*
X017729Y007813D01*
X017696Y007784D01*
X017667Y007751D01*
X017640Y007717D01*
X017617Y007680D01*
X017597Y007641D01*
X017580Y007601D01*
X017567Y007559D01*
X017558Y007517D01*
X017552Y007474D01*
X017550Y007430D01*
X017550Y007180D01*
X018426Y007180D01*
X019126Y006996D02*
X019222Y006996D01*
X019222Y007154D02*
X026570Y007154D01*
X026570Y006996D02*
X019610Y006996D01*
X019603Y006837D02*
X026570Y006837D01*
X026570Y006679D02*
X019029Y006679D01*
X019126Y006837D02*
X019222Y006837D01*
X018847Y006520D02*
X026570Y006520D01*
X026570Y007313D02*
X019610Y007313D01*
X019174Y007180D02*
X020050Y007180D01*
X017356Y010722D02*
X017157Y010640D01*
X016943Y010640D01*
X016744Y010722D01*
X016592Y010874D01*
X016510Y011073D01*
X016510Y011200D01*
X015650Y011200D01*
X015639Y011172D01*
X015526Y011060D01*
X015379Y010999D01*
X014626Y010999D01*
X014479Y011060D01*
X014367Y011172D01*
X014306Y011319D01*
X014306Y012072D01*
X014367Y012219D01*
X014479Y012332D01*
X014528Y012352D01*
X014526Y012359D01*
X014526Y012662D01*
X014984Y012662D01*
X014984Y012698D01*
X014526Y012698D01*
X014526Y013001D01*
X014528Y013008D01*
X014479Y013028D01*
X014367Y013141D01*
X014306Y013288D01*
X014306Y014041D01*
X014367Y014188D01*
X014479Y014300D01*
X014626Y014361D01*
X015379Y014361D01*
X015526Y014300D01*
X015639Y014188D01*
X015657Y014144D01*
X016218Y014144D01*
X016509Y014050D01*
X016509Y014050D01*
X016756Y013870D01*
X016756Y013870D01*
X016936Y013623D01*
X016936Y013623D01*
X016967Y013527D01*
X017008Y013486D01*
X017090Y013287D01*
X017090Y013073D01*
X017008Y012874D01*
X016856Y012722D01*
X016657Y012640D01*
X016443Y012640D01*
X016244Y012722D01*
X016092Y012874D01*
X016010Y013073D01*
X016010Y013184D01*
X015657Y013184D01*
X015639Y013141D01*
X015526Y013028D01*
X015478Y013008D01*
X015480Y013001D01*
X015480Y012698D01*
X015021Y012698D01*
X015021Y012662D01*
X015480Y012662D01*
X015480Y012359D01*
X015478Y012352D01*
X015526Y012332D01*
X015639Y012219D01*
X015663Y012160D01*
X016705Y012160D01*
X017000Y012064D01*
X017000Y012064D01*
X017252Y011882D01*
X017252Y011882D01*
X017252Y011882D01*
X017434Y011630D01*
X017434Y011630D01*
X017468Y011526D01*
X017508Y011486D01*
X017590Y011287D01*
X017590Y011073D01*
X017508Y010874D01*
X017356Y010722D01*
X017433Y010800D02*
X025095Y010800D01*
X025100Y010796D02*
X025100Y010796D01*
X025320Y010641D02*
X017160Y010641D01*
X016940Y010641D02*
X013083Y010641D01*
X013083Y010483D02*
X025320Y010483D01*
X025320Y010324D02*
X013083Y010324D01*
X013083Y010166D02*
X025320Y010166D01*
X025320Y010007D02*
X013083Y010007D01*
X013083Y009849D02*
X025320Y009849D01*
X025320Y009690D02*
X013083Y009690D01*
X013083Y009566D02*
X013083Y010991D01*
X013022Y011138D01*
X012910Y011251D01*
X012763Y011311D01*
X011337Y011311D01*
X011190Y011251D01*
X011078Y011138D01*
X011017Y010991D01*
X011017Y009566D01*
X011078Y009419D01*
X011190Y009306D01*
X011337Y009245D01*
X012763Y009245D01*
X012910Y009306D01*
X013022Y009419D01*
X013083Y009566D01*
X013069Y009532D02*
X025320Y009532D01*
X025320Y009373D02*
X012976Y009373D01*
X013083Y010800D02*
X016667Y010800D01*
X016557Y010958D02*
X013083Y010958D01*
X013031Y011117D02*
X014423Y011117D01*
X014324Y011275D02*
X012851Y011275D01*
X014306Y011434D02*
X009771Y011434D01*
X009771Y011375D02*
X009771Y011677D01*
X009313Y011677D01*
X009313Y011714D01*
X009771Y011714D01*
X009771Y012016D01*
X009759Y012062D01*
X009735Y012103D01*
X009701Y012137D01*
X009660Y012160D01*
X009615Y012173D01*
X009313Y012173D01*
X009313Y011714D01*
X009276Y011714D01*
X009276Y012173D01*
X008974Y012173D01*
X008928Y012160D01*
X008887Y012137D01*
X008853Y012103D01*
X008830Y012062D01*
X008817Y012016D01*
X008817Y011714D01*
X009276Y011714D01*
X009276Y011677D01*
X009313Y011677D01*
X009313Y011219D01*
X009615Y011219D01*
X009660Y011231D01*
X009701Y011255D01*
X009735Y011288D01*
X009759Y011329D01*
X009771Y011375D01*
X009722Y011275D02*
X011249Y011275D01*
X011069Y011117D02*
X008530Y011117D01*
X008530Y011275D02*
X008867Y011275D01*
X008853Y011288D02*
X008887Y011255D01*
X008928Y011231D01*
X008974Y011219D01*
X009276Y011219D01*
X009276Y011677D01*
X008817Y011677D01*
X008817Y011375D01*
X008830Y011329D01*
X008853Y011288D01*
X008817Y011434D02*
X008530Y011434D01*
X008530Y011592D02*
X008817Y011592D01*
X008817Y011751D02*
X008530Y011751D01*
X008530Y011909D02*
X008817Y011909D01*
X008833Y012068D02*
X008530Y012068D01*
X008530Y012226D02*
X014374Y012226D01*
X014306Y012068D02*
X009756Y012068D01*
X009771Y011909D02*
X014306Y011909D01*
X014306Y011751D02*
X009771Y011751D01*
X009771Y011592D02*
X014306Y011592D01*
X015019Y011680D02*
X016550Y011680D01*
X016990Y012068D02*
X024674Y012068D01*
X024560Y011909D02*
X017214Y011909D01*
X017347Y011751D02*
X024510Y011751D01*
X024510Y011592D02*
X017447Y011592D01*
X017529Y011434D02*
X024568Y011434D01*
X024651Y011275D02*
X017590Y011275D01*
X017590Y011117D02*
X024748Y011117D01*
X024876Y010958D02*
X017543Y010958D01*
X017050Y011180D02*
X017048Y011224D01*
X017042Y011267D01*
X017033Y011309D01*
X017020Y011351D01*
X017003Y011391D01*
X016983Y011430D01*
X016960Y011467D01*
X016933Y011501D01*
X016904Y011534D01*
X016871Y011563D01*
X016837Y011590D01*
X016800Y011613D01*
X016761Y011633D01*
X016721Y011650D01*
X016679Y011663D01*
X016637Y011672D01*
X016594Y011678D01*
X016550Y011680D01*
X016510Y011117D02*
X015583Y011117D01*
X015632Y012226D02*
X025124Y012226D01*
X025124Y012385D02*
X015480Y012385D01*
X015480Y012543D02*
X025149Y012543D01*
X025256Y012702D02*
X016806Y012702D01*
X017050Y012680D02*
X015003Y012680D01*
X015480Y012702D02*
X016294Y012702D01*
X016106Y012860D02*
X015480Y012860D01*
X015503Y013019D02*
X016032Y013019D01*
X016010Y013177D02*
X015654Y013177D01*
X016066Y013664D02*
X016108Y013662D01*
X016150Y013657D01*
X016191Y013648D01*
X016232Y013635D01*
X016271Y013619D01*
X016308Y013599D01*
X016344Y013576D01*
X016377Y013551D01*
X016408Y013522D01*
X016437Y013491D01*
X016462Y013458D01*
X016485Y013422D01*
X016505Y013385D01*
X016521Y013346D01*
X016534Y013305D01*
X016543Y013264D01*
X016548Y013222D01*
X016550Y013180D01*
X016994Y012860D02*
X025372Y012860D01*
X025344Y013019D02*
X017068Y013019D01*
X017090Y013177D02*
X025344Y013177D01*
X025344Y013328D02*
X025742Y013328D01*
X025742Y013766D01*
X025501Y013766D01*
X025455Y013753D01*
X025414Y013730D01*
X025380Y013696D01*
X025357Y013655D01*
X025344Y013609D01*
X025344Y013328D01*
X025344Y013336D02*
X017070Y013336D01*
X017000Y013494D02*
X025344Y013494D01*
X025356Y013653D02*
X016914Y013653D01*
X016799Y013811D02*
X026570Y013811D01*
X026570Y013653D02*
X026244Y013653D01*
X026256Y013494D02*
X026570Y013494D01*
X026570Y013336D02*
X026256Y013336D01*
X026256Y013177D02*
X026570Y013177D01*
X026570Y013019D02*
X026256Y013019D01*
X026228Y012860D02*
X026570Y012860D01*
X026570Y012702D02*
X026344Y012702D01*
X026451Y012543D02*
X026570Y012543D01*
X026570Y012385D02*
X026476Y012385D01*
X026476Y012226D02*
X026570Y012226D01*
X026570Y012068D02*
X026476Y012068D01*
X026476Y011909D02*
X026570Y011909D01*
X026570Y011751D02*
X026476Y011751D01*
X026433Y011592D02*
X026570Y011592D01*
X026570Y011434D02*
X026298Y011434D01*
X026280Y011275D02*
X026570Y011275D01*
X026570Y011117D02*
X026280Y011117D01*
X026280Y010958D02*
X026570Y010958D01*
X026570Y010800D02*
X026280Y010800D01*
X026280Y010641D02*
X026570Y010641D01*
X026570Y010483D02*
X026280Y010483D01*
X026280Y010324D02*
X026570Y010324D01*
X026570Y010166D02*
X026280Y010166D01*
X026280Y010007D02*
X026570Y010007D01*
X026570Y009849D02*
X026280Y009849D01*
X026280Y009690D02*
X026570Y009690D01*
X026570Y009532D02*
X026280Y009532D01*
X026280Y009373D02*
X026570Y009373D01*
X026570Y009215D02*
X026280Y009215D01*
X026280Y009056D02*
X026570Y009056D01*
X026570Y008898D02*
X026280Y008898D01*
X026280Y008739D02*
X026570Y008739D01*
X026570Y008581D02*
X026280Y008581D01*
X026280Y008422D02*
X026570Y008422D01*
X026570Y008264D02*
X026276Y008264D01*
X026225Y008105D02*
X026570Y008105D01*
X026570Y007947D02*
X026160Y007947D01*
X026184Y007980D02*
X026184Y007980D01*
X026045Y007788D02*
X026570Y007788D01*
X026570Y007630D02*
X025865Y007630D01*
X025520Y007471D02*
X026570Y007471D01*
X025800Y008430D02*
X025800Y011180D01*
X025550Y011180D01*
X025800Y011180D02*
X025800Y012089D01*
X025050Y011680D02*
X025052Y011636D01*
X025058Y011593D01*
X025067Y011551D01*
X025080Y011509D01*
X025097Y011469D01*
X025117Y011430D01*
X025140Y011393D01*
X025167Y011359D01*
X025196Y011326D01*
X025229Y011297D01*
X025263Y011270D01*
X025300Y011247D01*
X025339Y011227D01*
X025379Y011210D01*
X025421Y011197D01*
X025463Y011188D01*
X025506Y011182D01*
X025550Y011180D01*
X025320Y009215D02*
X008530Y009215D01*
X008530Y009373D02*
X011124Y009373D01*
X011031Y009532D02*
X008530Y009532D01*
X008530Y009690D02*
X011017Y009690D01*
X011017Y009849D02*
X008530Y009849D01*
X008530Y010007D02*
X011017Y010007D01*
X011017Y010166D02*
X008530Y010166D01*
X008530Y010324D02*
X011017Y010324D01*
X011017Y010483D02*
X008530Y010483D01*
X008530Y010641D02*
X011017Y010641D01*
X011017Y010800D02*
X008530Y010800D01*
X008530Y010958D02*
X011017Y010958D01*
X009313Y011275D02*
X009276Y011275D01*
X009276Y011434D02*
X009313Y011434D01*
X009313Y011592D02*
X009276Y011592D01*
X009276Y011751D02*
X009313Y011751D01*
X009313Y011909D02*
X009276Y011909D01*
X009276Y012068D02*
X009313Y012068D01*
X008530Y012385D02*
X014526Y012385D01*
X014526Y012543D02*
X008530Y012543D01*
X008530Y012702D02*
X014526Y012702D01*
X014526Y012860D02*
X008530Y012860D01*
X008530Y013019D02*
X008794Y013019D01*
X008643Y013177D02*
X008530Y013177D01*
X008050Y013180D02*
X008052Y013224D01*
X008058Y013267D01*
X008067Y013309D01*
X008080Y013351D01*
X008097Y013391D01*
X008117Y013430D01*
X008140Y013467D01*
X008167Y013501D01*
X008196Y013534D01*
X008229Y013563D01*
X008263Y013590D01*
X008300Y013613D01*
X008339Y013633D01*
X008379Y013650D01*
X008421Y013663D01*
X008463Y013672D01*
X008506Y013678D01*
X008550Y013680D01*
X009278Y013680D01*
X009284Y013679D01*
X009289Y013675D01*
X009293Y013670D01*
X009294Y013664D01*
X009794Y013019D02*
X014503Y013019D01*
X014352Y013177D02*
X009945Y013177D01*
X009991Y013336D02*
X014306Y013336D01*
X014306Y013494D02*
X009991Y013494D01*
X009991Y013653D02*
X014306Y013653D01*
X014306Y013811D02*
X009991Y013811D01*
X009991Y013970D02*
X014306Y013970D01*
X014342Y014128D02*
X012928Y014128D01*
X012910Y014109D02*
X013022Y014222D01*
X013083Y014369D01*
X013083Y015794D01*
X013022Y015941D01*
X012910Y016054D01*
X012763Y016115D01*
X011337Y016115D01*
X011190Y016054D01*
X011078Y015941D01*
X011017Y015794D01*
X011017Y014369D01*
X011078Y014222D01*
X011190Y014109D01*
X011337Y014049D01*
X012763Y014049D01*
X012910Y014109D01*
X013049Y014287D02*
X014466Y014287D01*
X015003Y013664D02*
X016066Y013664D01*
X016268Y014128D02*
X026570Y014128D01*
X026570Y013970D02*
X016620Y013970D01*
X016756Y013870D02*
X016756Y013870D01*
X015540Y014287D02*
X026570Y014287D01*
X026570Y014445D02*
X013083Y014445D01*
X013083Y014604D02*
X026570Y014604D01*
X026570Y014762D02*
X013083Y014762D01*
X013083Y014921D02*
X026570Y014921D01*
X026570Y015079D02*
X013083Y015079D01*
X013083Y015238D02*
X026570Y015238D01*
X026570Y015396D02*
X013083Y015396D01*
X013083Y015555D02*
X026570Y015555D01*
X026570Y015713D02*
X013083Y015713D01*
X013051Y015872D02*
X026570Y015872D01*
X026570Y016030D02*
X012933Y016030D01*
X011167Y016030D02*
X008030Y016030D01*
X008030Y015872D02*
X011049Y015872D01*
X011017Y015713D02*
X008030Y015713D01*
X008030Y015555D02*
X011017Y015555D01*
X011017Y015396D02*
X008030Y015396D01*
X008030Y015238D02*
X011017Y015238D01*
X011017Y015079D02*
X008030Y015079D01*
X008030Y014921D02*
X011017Y014921D01*
X011017Y014762D02*
X008030Y014762D01*
X008030Y014604D02*
X011017Y014604D01*
X011017Y014445D02*
X008030Y014445D01*
X008030Y014287D02*
X008757Y014287D01*
X008296Y014128D02*
X008030Y014128D01*
X008050Y013180D02*
X008050Y008180D01*
X008530Y008581D02*
X025320Y008581D01*
X025320Y008739D02*
X008530Y008739D01*
X008530Y008898D02*
X025320Y008898D01*
X025320Y009056D02*
X008530Y009056D01*
X007050Y007680D02*
X007050Y017180D01*
X007048Y017224D01*
X007042Y017267D01*
X007033Y017309D01*
X007020Y017351D01*
X007003Y017391D01*
X006983Y017430D01*
X006960Y017467D01*
X006933Y017501D01*
X006904Y017534D01*
X006871Y017563D01*
X006837Y017590D01*
X006800Y017613D01*
X006761Y017633D01*
X006721Y017650D01*
X006679Y017663D01*
X006637Y017672D01*
X006594Y017678D01*
X006550Y017680D01*
X003050Y017680D01*
X003771Y018249D02*
X007070Y018249D01*
X007070Y018091D02*
X006919Y018091D01*
X007000Y018064D02*
X006705Y018160D01*
X003860Y018160D01*
X003747Y018273D01*
X003658Y018310D01*
X003663Y018314D01*
X003716Y018367D01*
X003761Y018428D01*
X003795Y018496D01*
X003818Y018568D01*
X003830Y018642D01*
X003830Y018660D01*
X003070Y018660D01*
X003070Y018700D01*
X003830Y018700D01*
X003830Y018718D01*
X003818Y018792D01*
X003795Y018864D01*
X003761Y018932D01*
X003716Y018993D01*
X003663Y019046D01*
X003658Y019050D01*
X003747Y019087D01*
X003860Y019200D01*
X005510Y019200D01*
X005510Y019073D01*
X005592Y018874D01*
X005744Y018722D01*
X005943Y018640D01*
X006157Y018640D01*
X006356Y018722D01*
X006508Y018874D01*
X006590Y019073D01*
X006590Y019287D01*
X006508Y019486D01*
X006468Y019526D01*
X006434Y019630D01*
X006252Y019882D01*
X006000Y020064D01*
X005705Y020160D01*
X003860Y020160D01*
X003840Y020180D01*
X003860Y020200D01*
X007050Y020200D01*
X007053Y020200D01*
X007059Y020198D01*
X007064Y020194D01*
X007068Y020189D01*
X007070Y020183D01*
X007070Y020180D01*
X007070Y018014D01*
X007000Y018064D01*
X007000Y018064D01*
X007070Y018408D02*
X003745Y018408D01*
X003818Y018566D02*
X007070Y018566D01*
X007070Y018725D02*
X006358Y018725D01*
X006511Y018883D02*
X007070Y018883D01*
X007070Y019042D02*
X006577Y019042D01*
X006590Y019200D02*
X007070Y019200D01*
X007070Y019359D02*
X006561Y019359D01*
X006477Y019517D02*
X007070Y019517D01*
X007070Y019676D02*
X006401Y019676D01*
X006286Y019834D02*
X007070Y019834D01*
X007070Y019993D02*
X006099Y019993D01*
X006252Y019882D02*
X006252Y019882D01*
X005733Y020151D02*
X007070Y020151D01*
X007550Y020180D02*
X007548Y020224D01*
X007542Y020267D01*
X007533Y020309D01*
X007520Y020351D01*
X007503Y020391D01*
X007483Y020430D01*
X007460Y020467D01*
X007433Y020501D01*
X007404Y020534D01*
X007371Y020563D01*
X007337Y020590D01*
X007300Y020613D01*
X007261Y020633D01*
X007221Y020650D01*
X007179Y020663D01*
X007137Y020672D01*
X007094Y020678D01*
X007050Y020680D01*
X003050Y020680D01*
X003759Y021261D02*
X026570Y021261D01*
X026570Y021419D02*
X002530Y021419D01*
X002530Y021578D02*
X026570Y021578D01*
X026570Y021736D02*
X002530Y021736D01*
X002530Y021895D02*
X026570Y021895D01*
X026570Y022053D02*
X002530Y022053D01*
X002530Y022212D02*
X026570Y022212D01*
X026570Y022370D02*
X002530Y022370D01*
X002530Y022529D02*
X026570Y022529D01*
X026570Y022687D02*
X002530Y022687D01*
X002530Y022846D02*
X026570Y022846D01*
X026570Y023004D02*
X002530Y023004D01*
X002530Y023163D02*
X026570Y023163D01*
X026570Y023321D02*
X002530Y023321D01*
X002530Y023480D02*
X026570Y023480D01*
X026570Y023638D02*
X002530Y023638D01*
X002530Y023797D02*
X026570Y023797D01*
X026570Y023955D02*
X002530Y023955D01*
X003050Y019680D02*
X005550Y019680D01*
X005594Y019678D01*
X005637Y019672D01*
X005679Y019663D01*
X005721Y019650D01*
X005761Y019633D01*
X005800Y019613D01*
X005837Y019590D01*
X005871Y019563D01*
X005904Y019534D01*
X005933Y019501D01*
X005960Y019467D01*
X005983Y019430D01*
X006003Y019391D01*
X006020Y019351D01*
X006033Y019309D01*
X006042Y019267D01*
X006048Y019224D01*
X006050Y019180D01*
X005523Y019042D02*
X003667Y019042D01*
X003785Y018883D02*
X005589Y018883D01*
X005742Y018725D02*
X003829Y018725D01*
X003050Y016680D02*
X006050Y016680D01*
X006094Y016678D01*
X006137Y016672D01*
X006179Y016663D01*
X006221Y016650D01*
X006261Y016633D01*
X006300Y016613D01*
X006337Y016590D01*
X006371Y016563D01*
X006404Y016534D01*
X006433Y016501D01*
X006460Y016467D01*
X006483Y016430D01*
X006503Y016391D01*
X006520Y016351D01*
X006533Y016309D01*
X006542Y016267D01*
X006548Y016224D01*
X006550Y016180D01*
X006550Y009180D01*
X006550Y008680D01*
X006548Y008636D01*
X006542Y008593D01*
X006533Y008551D01*
X006520Y008509D01*
X006503Y008469D01*
X006483Y008430D01*
X006460Y008393D01*
X006433Y008359D01*
X006404Y008326D01*
X006371Y008297D01*
X006337Y008270D01*
X006300Y008247D01*
X006261Y008227D01*
X006221Y008210D01*
X006179Y008197D01*
X006137Y008188D01*
X006094Y008182D01*
X006050Y008180D01*
X003050Y008180D01*
X003050Y007180D02*
X006550Y007180D01*
X006594Y007182D01*
X006637Y007188D01*
X006679Y007197D01*
X006721Y007210D01*
X006761Y007227D01*
X006800Y007247D01*
X006837Y007270D01*
X006871Y007297D01*
X006904Y007326D01*
X006933Y007359D01*
X006960Y007393D01*
X006983Y007430D01*
X007003Y007469D01*
X007020Y007509D01*
X007033Y007551D01*
X007042Y007593D01*
X007048Y007636D01*
X007050Y007680D01*
X007550Y006680D02*
X007548Y006636D01*
X007542Y006593D01*
X007533Y006551D01*
X007520Y006509D01*
X007503Y006469D01*
X007483Y006430D01*
X007460Y006393D01*
X007433Y006359D01*
X007404Y006326D01*
X007371Y006297D01*
X007337Y006270D01*
X007300Y006247D01*
X007261Y006227D01*
X007221Y006210D01*
X007179Y006197D01*
X007137Y006188D01*
X007094Y006182D01*
X007050Y006180D01*
X003050Y006180D01*
X003030Y005094D02*
X003070Y005094D01*
X003070Y004935D02*
X003030Y004935D01*
X003030Y004777D02*
X003070Y004777D01*
X007550Y006680D02*
X007550Y020180D01*
X008030Y020151D02*
X026570Y020151D01*
X026570Y019993D02*
X008030Y019993D01*
X008030Y019834D02*
X026570Y019834D01*
X026570Y019676D02*
X008030Y019676D01*
X008030Y019517D02*
X026570Y019517D01*
X026570Y019359D02*
X008030Y019359D01*
X008030Y019200D02*
X026570Y019200D01*
X026570Y019042D02*
X008030Y019042D01*
X008030Y018883D02*
X026570Y018883D01*
X026570Y018725D02*
X008030Y018725D01*
X008030Y018566D02*
X026570Y018566D01*
X026570Y018408D02*
X008030Y018408D01*
X008030Y018249D02*
X026570Y018249D01*
X026570Y018091D02*
X008030Y018091D01*
X008030Y017932D02*
X026570Y017932D01*
X026570Y017774D02*
X008030Y017774D01*
X008030Y017615D02*
X026570Y017615D01*
X026570Y017457D02*
X008030Y017457D01*
X008030Y017298D02*
X026570Y017298D01*
X026570Y017140D02*
X008030Y017140D01*
X008030Y016981D02*
X026570Y016981D01*
X026570Y016823D02*
X008030Y016823D01*
X008030Y016664D02*
X026570Y016664D01*
X026570Y016506D02*
X008030Y016506D01*
X008030Y016347D02*
X026570Y016347D01*
X026570Y016189D02*
X008030Y016189D01*
X009831Y014287D02*
X011051Y014287D01*
X011172Y014128D02*
X009955Y014128D01*
X006050Y010180D02*
X006050Y009680D01*
X006048Y009636D01*
X006042Y009593D01*
X006033Y009551D01*
X006020Y009509D01*
X006003Y009469D01*
X005983Y009430D01*
X005960Y009393D01*
X005933Y009359D01*
X005904Y009326D01*
X005871Y009297D01*
X005837Y009270D01*
X005800Y009247D01*
X005761Y009227D01*
X005721Y009210D01*
X005679Y009197D01*
X005637Y009188D01*
X005594Y009182D01*
X005550Y009180D01*
X003050Y009180D01*
X008030Y020310D02*
X026570Y020310D01*
X026570Y020468D02*
X007987Y020468D01*
X007935Y020627D02*
X026570Y020627D01*
X026570Y020785D02*
X007822Y020785D01*
X007752Y020882D02*
X007752Y020882D01*
X007752Y020882D01*
X007666Y020944D02*
X026570Y020944D01*
X026570Y021102D02*
X007384Y021102D01*
X007500Y021064D02*
X007500Y021064D01*
X025742Y013653D02*
X025858Y013653D01*
X025858Y013494D02*
X025742Y013494D01*
X025742Y013336D02*
X025858Y013336D01*
D11*
X019174Y007180D03*
X018426Y007180D03*
D12*
X025800Y012089D03*
X025800Y013271D03*
D13*
X015003Y013664D03*
X015003Y012680D03*
X015003Y011696D03*
X009294Y011696D03*
X009294Y013664D03*
D14*
X012050Y015082D03*
X012050Y010278D03*
D15*
X003350Y009180D02*
X002750Y009180D01*
X002750Y008180D02*
X003350Y008180D01*
X003350Y007180D02*
X002750Y007180D01*
X002750Y006180D02*
X003350Y006180D01*
X003350Y005180D02*
X002750Y005180D01*
X002750Y015680D02*
X003350Y015680D01*
X003350Y016680D02*
X002750Y016680D01*
X002750Y017680D02*
X003350Y017680D01*
X003350Y018680D02*
X002750Y018680D01*
X002750Y019680D02*
X003350Y019680D01*
X003350Y020680D02*
X002750Y020680D01*
D16*
X006050Y019180D03*
X006050Y010180D03*
X006550Y009180D03*
X007050Y007680D03*
X007550Y006680D03*
X008050Y008180D03*
X016550Y013180D03*
X017050Y012680D03*
X017050Y011180D03*
X017550Y007180D03*
X020050Y007180D03*
X025050Y011680D03*
X025050Y013680D03*
M02*
