%
M48
M72
T01C0.0160
T02C0.0394
T03C0.0400
T04C0.0866
%
T01
X20050Y7180
X25050Y13680
X17050Y12680
X16550Y13680
X17050Y11680
X17550Y10430
X17550Y7180
X25050Y11680
X6050Y19680
X6050Y9680
X6550Y8680
X7050Y7680
X7550Y6680
T02
X15003Y11696
X15003Y12680
X15003Y13664
X9294Y11696
X9294Y13664
T03
X3050Y5680
X3050Y6680
X3050Y7680
X3050Y8680
X3050Y9680
X3050Y15680
X3050Y16680
X3050Y17680
X3050Y18680
X3050Y19680
X3050Y20680
T04
X12050Y10278
X12050Y15082
M30
